<?xml version="1.0" encoding="utf-8" standalone="no"?>
<!DOCTYPE svg PUBLIC "-//W3C//DTD SVG 1.1//EN"
  "http://www.w3.org/Graphics/SVG/1.1/DTD/svg11.dtd">
<svg xmlns:xlink="http://www.w3.org/1999/xlink" width="720pt" height="360pt" viewBox="0 0 720 360" xmlns="http://www.w3.org/2000/svg" version="1.1">
 <metadata>
  <rdf:RDF xmlns:dc="http://purl.org/dc/elements/1.1/" xmlns:cc="http://creativecommons.org/ns#" xmlns:rdf="http://www.w3.org/1999/02/22-rdf-syntax-ns#">
   <cc:Work>
    <dc:type rdf:resource="http://purl.org/dc/dcmitype/StillImage"/>
    <dc:date>2024-04-27T22:21:04.492641</dc:date>
    <dc:format>image/svg+xml</dc:format>
    <dc:creator>
     <cc:Agent>
      <dc:title>Matplotlib v3.7.1, https://matplotlib.org/</dc:title>
     </cc:Agent>
    </dc:creator>
   </cc:Work>
  </rdf:RDF>
 </metadata>
 <defs>
  <style type="text/css">*{stroke-linejoin: round; stroke-linecap: butt}</style>
 </defs>
 <g id="figure_1">
  <g id="patch_1">
   <path d="M 0 360 
L 720 360 
L 720 0 
L 0 0 
z
" style="fill: #ffffff"/>
  </g>
  <g id="axes_1">
   <g id="patch_2">
    <path d="M 90 320.4 
L 648 320.4 
L 648 43.2 
L 90 43.2 
z
" style="fill: #ffffff"/>
   </g>
   <g id="patch_3">
    <path d="M 129.080451 320.4 
L 130.078037 320.4 
L 130.078037 255.557895 
L 129.080451 255.557895 
z
" clip-path="url(#pbbac706387)" style="fill: #1f77b4"/>
   </g>
   <g id="patch_4">
    <path d="M 585.476267 320.4 
L 586.473854 320.4 
L 586.473854 315.768421 
L 585.476267 315.768421 
z
" clip-path="url(#pbbac706387)" style="fill: #1f77b4"/>
   </g>
   <g id="patch_5">
    <path d="M 166.489944 320.4 
L 167.48753 320.4 
L 167.48753 306.505263 
L 166.489944 306.505263 
z
" clip-path="url(#pbbac706387)" style="fill: #1f77b4"/>
   </g>
   <g id="patch_6">
    <path d="M 281.212389 320.4 
L 282.209976 320.4 
L 282.209976 315.768421 
L 281.212389 315.768421 
z
" clip-path="url(#pbbac706387)" style="fill: #1f77b4"/>
   </g>
   <g id="patch_7">
    <path d="M 357.278359 320.4 
L 358.275945 320.4 
L 358.275945 311.136842 
L 357.278359 311.136842 
z
" clip-path="url(#pbbac706387)" style="fill: #1f77b4"/>
   </g>
   <g id="patch_8">
    <path d="M 548.066774 320.4 
L 549.06436 320.4 
L 549.06436 315.768421 
L 548.066774 315.768421 
z
" clip-path="url(#pbbac706387)" style="fill: #1f77b4"/>
   </g>
   <g id="patch_9">
    <path d="M 130.327434 320.4 
L 131.32502 320.4 
L 131.32502 218.505263 
L 130.327434 218.505263 
z
" clip-path="url(#pbbac706387)" style="fill: #1f77b4"/>
   </g>
   <g id="patch_10">
    <path d="M 167.736927 320.4 
L 168.734513 320.4 
L 168.734513 311.136842 
L 167.736927 311.136842 
z
" clip-path="url(#pbbac706387)" style="fill: #1f77b4"/>
   </g>
   <g id="patch_11">
    <path d="M 243.802896 320.4 
L 244.800483 320.4 
L 244.800483 315.768421 
L 243.802896 315.768421 
z
" clip-path="url(#pbbac706387)" style="fill: #1f77b4"/>
   </g>
   <g id="patch_12">
    <path d="M 397.181818 320.4 
L 398.179405 320.4 
L 398.179405 315.768421 
L 397.181818 315.768421 
z
" clip-path="url(#pbbac706387)" style="fill: #1f77b4"/>
   </g>
   <g id="patch_13">
    <path d="M 474.494771 320.4 
L 475.492357 320.4 
L 475.492357 315.768421 
L 474.494771 315.768421 
z
" clip-path="url(#pbbac706387)" style="fill: #1f77b4"/>
   </g>
   <g id="patch_14">
    <path d="M 131.574417 320.4 
L 132.572003 320.4 
L 132.572003 56.4 
L 131.574417 56.4 
z
" clip-path="url(#pbbac706387)" style="fill: #1f77b4"/>
   </g>
   <g id="patch_15">
    <path d="M 587.970233 320.4 
L 588.96782 320.4 
L 588.96782 315.768421 
L 587.970233 315.768421 
z
" clip-path="url(#pbbac706387)" style="fill: #1f77b4"/>
   </g>
   <g id="patch_16">
    <path d="M 168.98391 320.4 
L 169.981496 320.4 
L 169.981496 306.505263 
L 168.98391 306.505263 
z
" clip-path="url(#pbbac706387)" style="fill: #1f77b4"/>
   </g>
   <g id="patch_17">
    <path d="M 207.640386 320.4 
L 208.637973 320.4 
L 208.637973 315.768421 
L 207.640386 315.768421 
z
" clip-path="url(#pbbac706387)" style="fill: #1f77b4"/>
   </g>
   <g id="patch_18">
    <path d="M 283.706356 320.4 
L 284.703942 320.4 
L 284.703942 315.768421 
L 283.706356 315.768421 
z
" clip-path="url(#pbbac706387)" style="fill: #1f77b4"/>
   </g>
   <g id="patch_19">
    <path d="M 322.362832 320.4 
L 323.360418 320.4 
L 323.360418 315.768421 
L 322.362832 315.768421 
z
" clip-path="url(#pbbac706387)" style="fill: #1f77b4"/>
   </g>
   <g id="patch_20">
    <path d="M 359.772325 320.4 
L 360.769912 320.4 
L 360.769912 311.136842 
L 359.772325 311.136842 
z
" clip-path="url(#pbbac706387)" style="fill: #1f77b4"/>
   </g>
   <g id="patch_21">
    <path d="M 550.56074 320.4 
L 551.558327 320.4 
L 551.558327 315.768421 
L 550.56074 315.768421 
z
" clip-path="url(#pbbac706387)" style="fill: #1f77b4"/>
   </g>
   <g id="patch_22">
    <path d="M 132.8214 320.4 
L 133.818986 320.4 
L 133.818986 209.242105 
L 132.8214 209.242105 
z
" clip-path="url(#pbbac706387)" style="fill: #1f77b4"/>
   </g>
   <g id="patch_23">
    <path d="M 589.217216 320.4 
L 590.214803 320.4 
L 590.214803 315.768421 
L 589.217216 315.768421 
z
" clip-path="url(#pbbac706387)" style="fill: #1f77b4"/>
   </g>
   <g id="patch_24">
    <path d="M 170.230893 320.4 
L 171.228479 320.4 
L 171.228479 315.768421 
L 170.230893 315.768421 
z
" clip-path="url(#pbbac706387)" style="fill: #1f77b4"/>
   </g>
   <g id="patch_25">
    <path d="M 208.887369 320.4 
L 209.884956 320.4 
L 209.884956 315.768421 
L 208.887369 315.768421 
z
" clip-path="url(#pbbac706387)" style="fill: #1f77b4"/>
   </g>
   <g id="patch_26">
    <path d="M 246.296862 320.4 
L 247.294449 320.4 
L 247.294449 311.136842 
L 246.296862 311.136842 
z
" clip-path="url(#pbbac706387)" style="fill: #1f77b4"/>
   </g>
   <g id="patch_27">
    <path d="M 361.019308 320.4 
L 362.016895 320.4 
L 362.016895 315.768421 
L 361.019308 315.768421 
z
" clip-path="url(#pbbac706387)" style="fill: #1f77b4"/>
   </g>
   <g id="patch_28">
    <path d="M 399.675784 320.4 
L 400.673371 320.4 
L 400.673371 315.768421 
L 399.675784 315.768421 
z
" clip-path="url(#pbbac706387)" style="fill: #1f77b4"/>
   </g>
   <g id="patch_29">
    <path d="M 551.807723 320.4 
L 552.80531 320.4 
L 552.80531 306.505263 
L 551.807723 306.505263 
z
" clip-path="url(#pbbac706387)" style="fill: #1f77b4"/>
   </g>
   <g id="patch_30">
    <path d="M 134.068383 320.4 
L 135.065969 320.4 
L 135.065969 269.452632 
L 134.068383 269.452632 
z
" clip-path="url(#pbbac706387)" style="fill: #1f77b4"/>
   </g>
   <g id="patch_31">
    <path d="M 171.477876 320.4 
L 172.475463 320.4 
L 172.475463 315.768421 
L 171.477876 315.768421 
z
" clip-path="url(#pbbac706387)" style="fill: #1f77b4"/>
   </g>
   <g id="patch_32">
    <path d="M 210.134352 320.4 
L 211.131939 320.4 
L 211.131939 315.768421 
L 210.134352 315.768421 
z
" clip-path="url(#pbbac706387)" style="fill: #1f77b4"/>
   </g>
   <g id="patch_33">
    <path d="M 247.543846 320.4 
L 248.541432 320.4 
L 248.541432 315.768421 
L 247.543846 315.768421 
z
" clip-path="url(#pbbac706387)" style="fill: #1f77b4"/>
   </g>
   <g id="patch_34">
    <path d="M 324.856798 320.4 
L 325.854385 320.4 
L 325.854385 315.768421 
L 324.856798 315.768421 
z
" clip-path="url(#pbbac706387)" style="fill: #1f77b4"/>
   </g>
   <g id="patch_35">
    <path d="M 553.054706 320.4 
L 554.052293 320.4 
L 554.052293 315.768421 
L 553.054706 315.768421 
z
" clip-path="url(#pbbac706387)" style="fill: #1f77b4"/>
   </g>
   <g id="patch_36">
    <path d="M 135.315366 320.4 
L 136.312953 320.4 
L 136.312953 315.768421 
L 135.315366 315.768421 
z
" clip-path="url(#pbbac706387)" style="fill: #1f77b4"/>
   </g>
   <g id="patch_37">
    <path d="M 172.724859 320.4 
L 173.722446 320.4 
L 173.722446 315.768421 
L 172.724859 315.768421 
z
" clip-path="url(#pbbac706387)" style="fill: #1f77b4"/>
   </g>
   <g id="patch_38">
    <path d="M 287.447305 320.4 
L 288.444891 320.4 
L 288.444891 315.768421 
L 287.447305 315.768421 
z
" clip-path="url(#pbbac706387)" style="fill: #1f77b4"/>
   </g>
   <g id="patch_39">
    <path d="M 326.103781 320.4 
L 327.101368 320.4 
L 327.101368 315.768421 
L 326.103781 315.768421 
z
" clip-path="url(#pbbac706387)" style="fill: #1f77b4"/>
   </g>
   <g id="patch_40">
    <path d="M 136.562349 320.4 
L 137.559936 320.4 
L 137.559936 311.136842 
L 136.562349 311.136842 
z
" clip-path="url(#pbbac706387)" style="fill: #1f77b4"/>
   </g>
   <g id="patch_41">
    <path d="M 173.971842 320.4 
L 174.969429 320.4 
L 174.969429 306.505263 
L 173.971842 306.505263 
z
" clip-path="url(#pbbac706387)" style="fill: #1f77b4"/>
   </g>
   <g id="patch_42">
    <path d="M 212.628319 320.4 
L 213.625905 320.4 
L 213.625905 315.768421 
L 212.628319 315.768421 
z
" clip-path="url(#pbbac706387)" style="fill: #1f77b4"/>
   </g>
   <g id="patch_43">
    <path d="M 288.694288 320.4 
L 289.691874 320.4 
L 289.691874 301.873684 
L 288.694288 301.873684 
z
" clip-path="url(#pbbac706387)" style="fill: #1f77b4"/>
   </g>
   <g id="patch_44">
    <path d="M 327.350764 320.4 
L 328.348351 320.4 
L 328.348351 315.768421 
L 327.350764 315.768421 
z
" clip-path="url(#pbbac706387)" style="fill: #1f77b4"/>
   </g>
   <g id="patch_45">
    <path d="M 364.760257 320.4 
L 365.757844 320.4 
L 365.757844 315.768421 
L 364.760257 315.768421 
z
" clip-path="url(#pbbac706387)" style="fill: #1f77b4"/>
   </g>
   <g id="patch_46">
    <path d="M 403.416734 320.4 
L 404.41432 320.4 
L 404.41432 315.768421 
L 403.416734 315.768421 
z
" clip-path="url(#pbbac706387)" style="fill: #1f77b4"/>
   </g>
   <g id="patch_47">
    <path d="M 440.826227 320.4 
L 441.823813 320.4 
L 441.823813 315.768421 
L 440.826227 315.768421 
z
" clip-path="url(#pbbac706387)" style="fill: #1f77b4"/>
   </g>
   <g id="patch_48">
    <path d="M 137.809332 320.4 
L 138.806919 320.4 
L 138.806919 306.505263 
L 137.809332 306.505263 
z
" clip-path="url(#pbbac706387)" style="fill: #1f77b4"/>
   </g>
   <g id="patch_49">
    <path d="M 289.941271 320.4 
L 290.938858 320.4 
L 290.938858 311.136842 
L 289.941271 311.136842 
z
" clip-path="url(#pbbac706387)" style="fill: #1f77b4"/>
   </g>
   <g id="patch_50">
    <path d="M 328.597747 320.4 
L 329.595334 320.4 
L 329.595334 311.136842 
L 328.597747 311.136842 
z
" clip-path="url(#pbbac706387)" style="fill: #1f77b4"/>
   </g>
   <g id="patch_51">
    <path d="M 139.056315 320.4 
L 140.053902 320.4 
L 140.053902 301.873684 
L 139.056315 301.873684 
z
" clip-path="url(#pbbac706387)" style="fill: #1f77b4"/>
   </g>
   <g id="patch_52">
    <path d="M 176.465809 320.4 
L 177.463395 320.4 
L 177.463395 315.768421 
L 176.465809 315.768421 
z
" clip-path="url(#pbbac706387)" style="fill: #1f77b4"/>
   </g>
   <g id="patch_53">
    <path d="M 215.122285 320.4 
L 216.119871 320.4 
L 216.119871 315.768421 
L 215.122285 315.768421 
z
" clip-path="url(#pbbac706387)" style="fill: #1f77b4"/>
   </g>
   <g id="patch_54">
    <path d="M 291.188254 320.4 
L 292.185841 320.4 
L 292.185841 315.768421 
L 291.188254 315.768421 
z
" clip-path="url(#pbbac706387)" style="fill: #1f77b4"/>
   </g>
   <g id="patch_55">
    <path d="M 329.84473 320.4 
L 330.842317 320.4 
L 330.842317 301.873684 
L 329.84473 301.873684 
z
" clip-path="url(#pbbac706387)" style="fill: #1f77b4"/>
   </g>
   <g id="patch_56">
    <path d="M 367.254224 320.4 
L 368.25181 320.4 
L 368.25181 315.768421 
L 367.254224 315.768421 
z
" clip-path="url(#pbbac706387)" style="fill: #1f77b4"/>
   </g>
   <g id="patch_57">
    <path d="M 443.320193 320.4 
L 444.31778 320.4 
L 444.31778 315.768421 
L 443.320193 315.768421 
z
" clip-path="url(#pbbac706387)" style="fill: #1f77b4"/>
   </g>
   <g id="patch_58">
    <path d="M 521.880129 320.4 
L 522.877715 320.4 
L 522.877715 315.768421 
L 521.880129 315.768421 
z
" clip-path="url(#pbbac706387)" style="fill: #1f77b4"/>
   </g>
   <g id="patch_59">
    <path d="M 292.435237 320.4 
L 293.432824 320.4 
L 293.432824 315.768421 
L 292.435237 315.768421 
z
" clip-path="url(#pbbac706387)" style="fill: #1f77b4"/>
   </g>
   <g id="patch_60">
    <path d="M 331.091714 320.4 
L 332.0893 320.4 
L 332.0893 306.505263 
L 331.091714 306.505263 
z
" clip-path="url(#pbbac706387)" style="fill: #1f77b4"/>
   </g>
   <g id="patch_61">
    <path d="M 368.501207 320.4 
L 369.498793 320.4 
L 369.498793 311.136842 
L 368.501207 311.136842 
z
" clip-path="url(#pbbac706387)" style="fill: #1f77b4"/>
   </g>
   <g id="patch_62">
    <path d="M 444.567176 320.4 
L 445.564763 320.4 
L 445.564763 315.768421 
L 444.567176 315.768421 
z
" clip-path="url(#pbbac706387)" style="fill: #1f77b4"/>
   </g>
   <g id="patch_63">
    <path d="M 141.550282 320.4 
L 142.547868 320.4 
L 142.547868 315.768421 
L 141.550282 315.768421 
z
" clip-path="url(#pbbac706387)" style="fill: #1f77b4"/>
   </g>
   <g id="patch_64">
    <path d="M 217.616251 320.4 
L 218.613837 320.4 
L 218.613837 315.768421 
L 217.616251 315.768421 
z
" clip-path="url(#pbbac706387)" style="fill: #1f77b4"/>
   </g>
   <g id="patch_65">
    <path d="M 255.025744 320.4 
L 256.023331 320.4 
L 256.023331 315.768421 
L 255.025744 315.768421 
z
" clip-path="url(#pbbac706387)" style="fill: #1f77b4"/>
   </g>
   <g id="patch_66">
    <path d="M 293.68222 320.4 
L 294.679807 320.4 
L 294.679807 315.768421 
L 293.68222 315.768421 
z
" clip-path="url(#pbbac706387)" style="fill: #1f77b4"/>
   </g>
   <g id="patch_67">
    <path d="M 332.338697 320.4 
L 333.336283 320.4 
L 333.336283 306.505263 
L 332.338697 306.505263 
z
" clip-path="url(#pbbac706387)" style="fill: #1f77b4"/>
   </g>
   <g id="patch_68">
    <path d="M 369.74819 320.4 
L 370.745776 320.4 
L 370.745776 311.136842 
L 369.74819 311.136842 
z
" clip-path="url(#pbbac706387)" style="fill: #1f77b4"/>
   </g>
   <g id="patch_69">
    <path d="M 560.536605 320.4 
L 561.534191 320.4 
L 561.534191 311.136842 
L 560.536605 311.136842 
z
" clip-path="url(#pbbac706387)" style="fill: #1f77b4"/>
   </g>
   <g id="patch_70">
    <path d="M 142.797265 320.4 
L 143.794851 320.4 
L 143.794851 306.505263 
L 142.797265 306.505263 
z
" clip-path="url(#pbbac706387)" style="fill: #1f77b4"/>
   </g>
   <g id="patch_71">
    <path d="M 218.863234 320.4 
L 219.860821 320.4 
L 219.860821 315.768421 
L 218.863234 315.768421 
z
" clip-path="url(#pbbac706387)" style="fill: #1f77b4"/>
   </g>
   <g id="patch_72">
    <path d="M 294.929204 320.4 
L 295.92679 320.4 
L 295.92679 287.978947 
L 294.929204 287.978947 
z
" clip-path="url(#pbbac706387)" style="fill: #1f77b4"/>
   </g>
   <g id="patch_73">
    <path d="M 333.58568 320.4 
L 334.583266 320.4 
L 334.583266 311.136842 
L 333.58568 311.136842 
z
" clip-path="url(#pbbac706387)" style="fill: #1f77b4"/>
   </g>
   <g id="patch_74">
    <path d="M 409.651649 320.4 
L 410.649236 320.4 
L 410.649236 315.768421 
L 409.651649 315.768421 
z
" clip-path="url(#pbbac706387)" style="fill: #1f77b4"/>
   </g>
   <g id="patch_75">
    <path d="M 144.044248 320.4 
L 145.041834 320.4 
L 145.041834 315.768421 
L 144.044248 315.768421 
z
" clip-path="url(#pbbac706387)" style="fill: #1f77b4"/>
   </g>
   <g id="patch_76">
    <path d="M 181.453741 320.4 
L 182.451327 320.4 
L 182.451327 315.768421 
L 181.453741 315.768421 
z
" clip-path="url(#pbbac706387)" style="fill: #1f77b4"/>
   </g>
   <g id="patch_77">
    <path d="M 296.176187 320.4 
L 297.173773 320.4 
L 297.173773 311.136842 
L 296.176187 311.136842 
z
" clip-path="url(#pbbac706387)" style="fill: #1f77b4"/>
   </g>
   <g id="patch_78">
    <path d="M 334.832663 320.4 
L 335.830249 320.4 
L 335.830249 264.821053 
L 334.832663 264.821053 
z
" clip-path="url(#pbbac706387)" style="fill: #1f77b4"/>
   </g>
   <g id="patch_79">
    <path d="M 372.242156 320.4 
L 373.239743 320.4 
L 373.239743 306.505263 
L 372.242156 306.505263 
z
" clip-path="url(#pbbac706387)" style="fill: #1f77b4"/>
   </g>
   <g id="patch_80">
    <path d="M 563.030571 320.4 
L 564.028158 320.4 
L 564.028158 315.768421 
L 563.030571 315.768421 
z
" clip-path="url(#pbbac706387)" style="fill: #1f77b4"/>
   </g>
   <g id="patch_81">
    <path d="M 145.291231 320.4 
L 146.288817 320.4 
L 146.288817 311.136842 
L 145.291231 311.136842 
z
" clip-path="url(#pbbac706387)" style="fill: #1f77b4"/>
   </g>
   <g id="patch_82">
    <path d="M 182.700724 320.4 
L 183.698311 320.4 
L 183.698311 311.136842 
L 182.700724 311.136842 
z
" clip-path="url(#pbbac706387)" style="fill: #1f77b4"/>
   </g>
   <g id="patch_83">
    <path d="M 221.3572 320.4 
L 222.354787 320.4 
L 222.354787 315.768421 
L 221.3572 315.768421 
z
" clip-path="url(#pbbac706387)" style="fill: #1f77b4"/>
   </g>
   <g id="patch_84">
    <path d="M 297.42317 320.4 
L 298.420756 320.4 
L 298.420756 311.136842 
L 297.42317 311.136842 
z
" clip-path="url(#pbbac706387)" style="fill: #1f77b4"/>
   </g>
   <g id="patch_85">
    <path d="M 336.079646 320.4 
L 337.077233 320.4 
L 337.077233 306.505263 
L 336.079646 306.505263 
z
" clip-path="url(#pbbac706387)" style="fill: #1f77b4"/>
   </g>
   <g id="patch_86">
    <path d="M 564.277554 320.4 
L 565.275141 320.4 
L 565.275141 315.768421 
L 564.277554 315.768421 
z
" clip-path="url(#pbbac706387)" style="fill: #1f77b4"/>
   </g>
   <g id="patch_87">
    <path d="M 146.538214 320.4 
L 147.5358 320.4 
L 147.5358 315.768421 
L 146.538214 315.768421 
z
" clip-path="url(#pbbac706387)" style="fill: #1f77b4"/>
   </g>
   <g id="patch_88">
    <path d="M 183.947707 320.4 
L 184.945294 320.4 
L 184.945294 315.768421 
L 183.947707 315.768421 
z
" clip-path="url(#pbbac706387)" style="fill: #1f77b4"/>
   </g>
   <g id="patch_89">
    <path d="M 222.604183 320.4 
L 223.60177 320.4 
L 223.60177 311.136842 
L 222.604183 311.136842 
z
" clip-path="url(#pbbac706387)" style="fill: #1f77b4"/>
   </g>
   <g id="patch_90">
    <path d="M 298.670153 320.4 
L 299.667739 320.4 
L 299.667739 311.136842 
L 298.670153 311.136842 
z
" clip-path="url(#pbbac706387)" style="fill: #1f77b4"/>
   </g>
   <g id="patch_91">
    <path d="M 337.326629 320.4 
L 338.324216 320.4 
L 338.324216 306.505263 
L 337.326629 306.505263 
z
" clip-path="url(#pbbac706387)" style="fill: #1f77b4"/>
   </g>
   <g id="patch_92">
    <path d="M 147.785197 320.4 
L 148.782784 320.4 
L 148.782784 315.768421 
L 147.785197 315.768421 
z
" clip-path="url(#pbbac706387)" style="fill: #1f77b4"/>
   </g>
   <g id="patch_93">
    <path d="M 185.19469 320.4 
L 186.192277 320.4 
L 186.192277 315.768421 
L 185.19469 315.768421 
z
" clip-path="url(#pbbac706387)" style="fill: #1f77b4"/>
   </g>
   <g id="patch_94">
    <path d="M 223.851167 320.4 
L 224.848753 320.4 
L 224.848753 315.768421 
L 223.851167 315.768421 
z
" clip-path="url(#pbbac706387)" style="fill: #1f77b4"/>
   </g>
   <g id="patch_95">
    <path d="M 299.917136 320.4 
L 300.914722 320.4 
L 300.914722 315.768421 
L 299.917136 315.768421 
z
" clip-path="url(#pbbac706387)" style="fill: #1f77b4"/>
   </g>
   <g id="patch_96">
    <path d="M 338.573612 320.4 
L 339.571199 320.4 
L 339.571199 283.347368 
L 338.573612 283.347368 
z
" clip-path="url(#pbbac706387)" style="fill: #1f77b4"/>
   </g>
   <g id="patch_97">
    <path d="M 375.983105 320.4 
L 376.980692 320.4 
L 376.980692 311.136842 
L 375.983105 311.136842 
z
" clip-path="url(#pbbac706387)" style="fill: #1f77b4"/>
   </g>
   <g id="patch_98">
    <path d="M 530.60901 320.4 
L 531.606597 320.4 
L 531.606597 315.768421 
L 530.60901 315.768421 
z
" clip-path="url(#pbbac706387)" style="fill: #1f77b4"/>
   </g>
   <g id="patch_99">
    <path d="M 566.771521 320.4 
L 567.769107 320.4 
L 567.769107 315.768421 
L 566.771521 315.768421 
z
" clip-path="url(#pbbac706387)" style="fill: #1f77b4"/>
   </g>
   <g id="patch_100">
    <path d="M 149.03218 320.4 
L 150.029767 320.4 
L 150.029767 297.242105 
L 149.03218 297.242105 
z
" clip-path="url(#pbbac706387)" style="fill: #1f77b4"/>
   </g>
   <g id="patch_101">
    <path d="M 339.820595 320.4 
L 340.818182 320.4 
L 340.818182 301.873684 
L 339.820595 301.873684 
z
" clip-path="url(#pbbac706387)" style="fill: #1f77b4"/>
   </g>
   <g id="patch_102">
    <path d="M 377.230088 320.4 
L 378.227675 320.4 
L 378.227675 315.768421 
L 377.230088 315.768421 
z
" clip-path="url(#pbbac706387)" style="fill: #1f77b4"/>
   </g>
   <g id="patch_103">
    <path d="M 187.688656 320.4 
L 188.686243 320.4 
L 188.686243 297.242105 
L 187.688656 297.242105 
z
" clip-path="url(#pbbac706387)" style="fill: #1f77b4"/>
   </g>
   <g id="patch_104">
    <path d="M 341.067578 320.4 
L 342.065165 320.4 
L 342.065165 301.873684 
L 341.067578 301.873684 
z
" clip-path="url(#pbbac706387)" style="fill: #1f77b4"/>
   </g>
   <g id="patch_105">
    <path d="M 188.93564 320.4 
L 189.933226 320.4 
L 189.933226 311.136842 
L 188.93564 311.136842 
z
" clip-path="url(#pbbac706387)" style="fill: #1f77b4"/>
   </g>
   <g id="patch_106">
    <path d="M 303.658085 320.4 
L 304.655672 320.4 
L 304.655672 311.136842 
L 303.658085 311.136842 
z
" clip-path="url(#pbbac706387)" style="fill: #1f77b4"/>
   </g>
   <g id="patch_107">
    <path d="M 342.314562 320.4 
L 343.312148 320.4 
L 343.312148 311.136842 
L 342.314562 311.136842 
z
" clip-path="url(#pbbac706387)" style="fill: #1f77b4"/>
   </g>
   <g id="patch_108">
    <path d="M 379.724055 320.4 
L 380.721641 320.4 
L 380.721641 315.768421 
L 379.724055 315.768421 
z
" clip-path="url(#pbbac706387)" style="fill: #1f77b4"/>
   </g>
   <g id="patch_109">
    <path d="M 152.77313 320.4 
L 153.770716 320.4 
L 153.770716 315.768421 
L 152.77313 315.768421 
z
" clip-path="url(#pbbac706387)" style="fill: #1f77b4"/>
   </g>
   <g id="patch_110">
    <path d="M 343.561545 320.4 
L 344.559131 320.4 
L 344.559131 301.873684 
L 343.561545 301.873684 
z
" clip-path="url(#pbbac706387)" style="fill: #1f77b4"/>
   </g>
   <g id="patch_111">
    <path d="M 496.940467 320.4 
L 497.938053 320.4 
L 497.938053 315.768421 
L 496.940467 315.768421 
z
" clip-path="url(#pbbac706387)" style="fill: #1f77b4"/>
   </g>
   <g id="patch_112">
    <path d="M 115.363636 320.4 
L 116.361223 320.4 
L 116.361223 315.768421 
L 115.363636 315.768421 
z
" clip-path="url(#pbbac706387)" style="fill: #1f77b4"/>
   </g>
   <g id="patch_113">
    <path d="M 154.020113 320.4 
L 155.017699 320.4 
L 155.017699 315.768421 
L 154.020113 315.768421 
z
" clip-path="url(#pbbac706387)" style="fill: #1f77b4"/>
   </g>
   <g id="patch_114">
    <path d="M 191.429606 320.4 
L 192.427192 320.4 
L 192.427192 315.768421 
L 191.429606 315.768421 
z
" clip-path="url(#pbbac706387)" style="fill: #1f77b4"/>
   </g>
   <g id="patch_115">
    <path d="M 230.086082 320.4 
L 231.083669 320.4 
L 231.083669 311.136842 
L 230.086082 311.136842 
z
" clip-path="url(#pbbac706387)" style="fill: #1f77b4"/>
   </g>
   <g id="patch_116">
    <path d="M 382.218021 320.4 
L 383.215607 320.4 
L 383.215607 315.768421 
L 382.218021 315.768421 
z
" clip-path="url(#pbbac706387)" style="fill: #1f77b4"/>
   </g>
   <g id="patch_117">
    <path d="M 611.662912 320.4 
L 612.660499 320.4 
L 612.660499 315.768421 
L 611.662912 315.768421 
z
" clip-path="url(#pbbac706387)" style="fill: #1f77b4"/>
   </g>
   <g id="patch_118">
    <path d="M 346.055511 320.4 
L 347.053097 320.4 
L 347.053097 306.505263 
L 346.055511 306.505263 
z
" clip-path="url(#pbbac706387)" style="fill: #1f77b4"/>
   </g>
   <g id="patch_119">
    <path d="M 422.12148 320.4 
L 423.119067 320.4 
L 423.119067 315.768421 
L 422.12148 315.768421 
z
" clip-path="url(#pbbac706387)" style="fill: #1f77b4"/>
   </g>
   <g id="patch_120">
    <path d="M 193.923572 320.4 
L 194.921158 320.4 
L 194.921158 315.768421 
L 193.923572 315.768421 
z
" clip-path="url(#pbbac706387)" style="fill: #1f77b4"/>
   </g>
   <g id="patch_121">
    <path d="M 347.302494 320.4 
L 348.30008 320.4 
L 348.30008 315.768421 
L 347.302494 315.768421 
z
" clip-path="url(#pbbac706387)" style="fill: #1f77b4"/>
   </g>
   <g id="patch_122">
    <path d="M 384.711987 320.4 
L 385.709574 320.4 
L 385.709574 315.768421 
L 384.711987 315.768421 
z
" clip-path="url(#pbbac706387)" style="fill: #1f77b4"/>
   </g>
   <g id="patch_123">
    <path d="M 614.156879 320.4 
L 615.154465 320.4 
L 615.154465 315.768421 
L 614.156879 315.768421 
z
" clip-path="url(#pbbac706387)" style="fill: #1f77b4"/>
   </g>
   <g id="patch_124">
    <path d="M 233.827031 320.4 
L 234.824618 320.4 
L 234.824618 315.768421 
L 233.827031 315.768421 
z
" clip-path="url(#pbbac706387)" style="fill: #1f77b4"/>
   </g>
   <g id="patch_125">
    <path d="M 309.893001 320.4 
L 310.890587 320.4 
L 310.890587 315.768421 
L 309.893001 315.768421 
z
" clip-path="url(#pbbac706387)" style="fill: #1f77b4"/>
   </g>
   <g id="patch_126">
    <path d="M 348.549477 320.4 
L 349.547064 320.4 
L 349.547064 311.136842 
L 348.549477 311.136842 
z
" clip-path="url(#pbbac706387)" style="fill: #1f77b4"/>
   </g>
   <g id="patch_127">
    <path d="M 424.615447 320.4 
L 425.613033 320.4 
L 425.613033 315.768421 
L 424.615447 315.768421 
z
" clip-path="url(#pbbac706387)" style="fill: #1f77b4"/>
   </g>
   <g id="patch_128">
    <path d="M 159.008045 320.4 
L 160.005632 320.4 
L 160.005632 315.768421 
L 159.008045 315.768421 
z
" clip-path="url(#pbbac706387)" style="fill: #1f77b4"/>
   </g>
   <g id="patch_129">
    <path d="M 196.417538 320.4 
L 197.415125 320.4 
L 197.415125 315.768421 
L 196.417538 315.768421 
z
" clip-path="url(#pbbac706387)" style="fill: #1f77b4"/>
   </g>
   <g id="patch_130">
    <path d="M 272.483508 320.4 
L 273.481094 320.4 
L 273.481094 315.768421 
L 272.483508 315.768421 
z
" clip-path="url(#pbbac706387)" style="fill: #1f77b4"/>
   </g>
   <g id="patch_131">
    <path d="M 349.79646 320.4 
L 350.794047 320.4 
L 350.794047 311.136842 
L 349.79646 311.136842 
z
" clip-path="url(#pbbac706387)" style="fill: #1f77b4"/>
   </g>
   <g id="patch_132">
    <path d="M 121.598552 320.4 
L 122.596138 320.4 
L 122.596138 315.768421 
L 121.598552 315.768421 
z
" clip-path="url(#pbbac706387)" style="fill: #1f77b4"/>
   </g>
   <g id="patch_133">
    <path d="M 577.994368 320.4 
L 578.991955 320.4 
L 578.991955 283.347368 
L 577.994368 283.347368 
z
" clip-path="url(#pbbac706387)" style="fill: #1f77b4"/>
   </g>
   <g id="patch_134">
    <path d="M 160.255028 320.4 
L 161.252615 320.4 
L 161.252615 315.768421 
L 160.255028 315.768421 
z
" clip-path="url(#pbbac706387)" style="fill: #1f77b4"/>
   </g>
   <g id="patch_135">
    <path d="M 351.043443 320.4 
L 352.04103 320.4 
L 352.04103 311.136842 
L 351.043443 311.136842 
z
" clip-path="url(#pbbac706387)" style="fill: #1f77b4"/>
   </g>
   <g id="patch_136">
    <path d="M 122.845535 320.4 
L 123.843121 320.4 
L 123.843121 315.768421 
L 122.845535 315.768421 
z
" clip-path="url(#pbbac706387)" style="fill: #1f77b4"/>
   </g>
   <g id="patch_137">
    <path d="M 617.897828 320.4 
L 618.895414 320.4 
L 618.895414 315.768421 
L 617.897828 315.768421 
z
" clip-path="url(#pbbac706387)" style="fill: #1f77b4"/>
   </g>
   <g id="patch_138">
    <path d="M 237.567981 320.4 
L 238.565567 320.4 
L 238.565567 315.768421 
L 237.567981 315.768421 
z
" clip-path="url(#pbbac706387)" style="fill: #1f77b4"/>
   </g>
   <g id="patch_139">
    <path d="M 313.63395 320.4 
L 314.631537 320.4 
L 314.631537 315.768421 
L 313.63395 315.768421 
z
" clip-path="url(#pbbac706387)" style="fill: #1f77b4"/>
   </g>
   <g id="patch_140">
    <path d="M 352.290426 320.4 
L 353.288013 320.4 
L 353.288013 315.768421 
L 352.290426 315.768421 
z
" clip-path="url(#pbbac706387)" style="fill: #1f77b4"/>
   </g>
   <g id="patch_141">
    <path d="M 465.765889 320.4 
L 466.763475 320.4 
L 466.763475 315.768421 
L 465.765889 315.768421 
z
" clip-path="url(#pbbac706387)" style="fill: #1f77b4"/>
   </g>
   <g id="patch_142">
    <path d="M 124.092518 320.4 
L 125.090105 320.4 
L 125.090105 311.136842 
L 124.092518 311.136842 
z
" clip-path="url(#pbbac706387)" style="fill: #1f77b4"/>
   </g>
   <g id="patch_143">
    <path d="M 314.880933 320.4 
L 315.87852 320.4 
L 315.87852 315.768421 
L 314.880933 315.768421 
z
" clip-path="url(#pbbac706387)" style="fill: #1f77b4"/>
   </g>
   <g id="patch_144">
    <path d="M 467.012872 320.4 
L 468.010459 320.4 
L 468.010459 315.768421 
L 467.012872 315.768421 
z
" clip-path="url(#pbbac706387)" style="fill: #1f77b4"/>
   </g>
   <g id="patch_145">
    <path d="M 506.916331 320.4 
L 507.913918 320.4 
L 507.913918 315.768421 
L 506.916331 315.768421 
z
" clip-path="url(#pbbac706387)" style="fill: #1f77b4"/>
   </g>
   <g id="patch_146">
    <path d="M 581.735318 320.4 
L 582.732904 320.4 
L 582.732904 315.768421 
L 581.735318 315.768421 
z
" clip-path="url(#pbbac706387)" style="fill: #1f77b4"/>
   </g>
   <g id="patch_147">
    <path d="M 163.995977 320.4 
L 164.993564 320.4 
L 164.993564 311.136842 
L 163.995977 311.136842 
z
" clip-path="url(#pbbac706387)" style="fill: #1f77b4"/>
   </g>
   <g id="patch_148">
    <path d="M 354.784393 320.4 
L 355.781979 320.4 
L 355.781979 311.136842 
L 354.784393 311.136842 
z
" clip-path="url(#pbbac706387)" style="fill: #1f77b4"/>
   </g>
   <g id="patch_149">
    <path d="M 126.586484 320.4 
L 127.584071 320.4 
L 127.584071 315.768421 
L 126.586484 315.768421 
z
" clip-path="url(#pbbac706387)" style="fill: #1f77b4"/>
   </g>
   <g id="patch_150">
    <path d="M 165.242961 320.4 
L 166.240547 320.4 
L 166.240547 315.768421 
L 165.242961 315.768421 
z
" clip-path="url(#pbbac706387)" style="fill: #1f77b4"/>
   </g>
   <g id="patch_151">
    <path d="M 621.638777 320.4 
L 622.636364 320.4 
L 622.636364 315.768421 
L 621.638777 315.768421 
z
" clip-path="url(#pbbac706387)" style="fill: #1f77b4"/>
   </g>
   <g id="patch_152">
    <path d="M 317.374899 320.4 
L 318.372486 320.4 
L 318.372486 306.505263 
L 317.374899 306.505263 
z
" clip-path="url(#pbbac706387)" style="fill: #1f77b4"/>
   </g>
   <g id="patch_153">
    <path d="M 356.031376 320.4 
L 357.028962 320.4 
L 357.028962 315.768421 
L 356.031376 315.768421 
z
" clip-path="url(#pbbac706387)" style="fill: #1f77b4"/>
   </g>
   <g id="patch_154">
    <path d="M 432.097345 320.4 
L 433.094932 320.4 
L 433.094932 311.136842 
L 432.097345 311.136842 
z
" clip-path="url(#pbbac706387)" style="fill: #1f77b4"/>
   </g>
   <g id="patch_155">
    <path d="M 509.410298 320.4 
L 510.407884 320.4 
L 510.407884 315.768421 
L 509.410298 315.768421 
z
" clip-path="url(#pbbac706387)" style="fill: #1f77b4"/>
   </g>
   <g id="patch_156">
    <path d="M 127.833467 320.4 
L 128.831054 320.4 
L 128.831054 311.136842 
L 127.833467 311.136842 
z
" clip-path="url(#pbbac706387)" style="fill: #1f77b4"/>
   </g>
   <g id="matplotlib.axis_1">
    <g id="xtick_1">
     <g id="line2d_1">
      <defs>
       <path id="mf58f76003c" d="M 0 0 
L 0 3.5 
" style="stroke: #000000; stroke-width: 0.8"/>
      </defs>
      <g>
       <use xlink:href="#mf58f76003c" x="90.922767" y="320.4" style="stroke: #000000; stroke-width: 0.8"/>
      </g>
     </g>
     <g id="text_1">
      <!-- 01.03.2019 -->
      <g transform="translate(62.294642 334.998438) scale(0.1 -0.1)">
       <defs>
        <path id="DejaVuSans-30" d="M 2034 4250 
Q 1547 4250 1301 3770 
Q 1056 3291 1056 2328 
Q 1056 1369 1301 889 
Q 1547 409 2034 409 
Q 2525 409 2770 889 
Q 3016 1369 3016 2328 
Q 3016 3291 2770 3770 
Q 2525 4250 2034 4250 
z
M 2034 4750 
Q 2819 4750 3233 4129 
Q 3647 3509 3647 2328 
Q 3647 1150 3233 529 
Q 2819 -91 2034 -91 
Q 1250 -91 836 529 
Q 422 1150 422 2328 
Q 422 3509 836 4129 
Q 1250 4750 2034 4750 
z
" transform="scale(0.015625)"/>
        <path id="DejaVuSans-31" d="M 794 531 
L 1825 531 
L 1825 4091 
L 703 3866 
L 703 4441 
L 1819 4666 
L 2450 4666 
L 2450 531 
L 3481 531 
L 3481 0 
L 794 0 
L 794 531 
z
" transform="scale(0.015625)"/>
        <path id="DejaVuSans-2e" d="M 684 794 
L 1344 794 
L 1344 0 
L 684 0 
L 684 794 
z
" transform="scale(0.015625)"/>
        <path id="DejaVuSans-33" d="M 2597 2516 
Q 3050 2419 3304 2112 
Q 3559 1806 3559 1356 
Q 3559 666 3084 287 
Q 2609 -91 1734 -91 
Q 1441 -91 1130 -33 
Q 819 25 488 141 
L 488 750 
Q 750 597 1062 519 
Q 1375 441 1716 441 
Q 2309 441 2620 675 
Q 2931 909 2931 1356 
Q 2931 1769 2642 2001 
Q 2353 2234 1838 2234 
L 1294 2234 
L 1294 2753 
L 1863 2753 
Q 2328 2753 2575 2939 
Q 2822 3125 2822 3475 
Q 2822 3834 2567 4026 
Q 2313 4219 1838 4219 
Q 1578 4219 1281 4162 
Q 984 4106 628 3988 
L 628 4550 
Q 988 4650 1302 4700 
Q 1616 4750 1894 4750 
Q 2613 4750 3031 4423 
Q 3450 4097 3450 3541 
Q 3450 3153 3228 2886 
Q 3006 2619 2597 2516 
z
" transform="scale(0.015625)"/>
        <path id="DejaVuSans-32" d="M 1228 531 
L 3431 531 
L 3431 0 
L 469 0 
L 469 531 
Q 828 903 1448 1529 
Q 2069 2156 2228 2338 
Q 2531 2678 2651 2914 
Q 2772 3150 2772 3378 
Q 2772 3750 2511 3984 
Q 2250 4219 1831 4219 
Q 1534 4219 1204 4116 
Q 875 4013 500 3803 
L 500 4441 
Q 881 4594 1212 4672 
Q 1544 4750 1819 4750 
Q 2544 4750 2975 4387 
Q 3406 4025 3406 3419 
Q 3406 3131 3298 2873 
Q 3191 2616 2906 2266 
Q 2828 2175 2409 1742 
Q 1991 1309 1228 531 
z
" transform="scale(0.015625)"/>
        <path id="DejaVuSans-39" d="M 703 97 
L 703 672 
Q 941 559 1184 500 
Q 1428 441 1663 441 
Q 2288 441 2617 861 
Q 2947 1281 2994 2138 
Q 2813 1869 2534 1725 
Q 2256 1581 1919 1581 
Q 1219 1581 811 2004 
Q 403 2428 403 3163 
Q 403 3881 828 4315 
Q 1253 4750 1959 4750 
Q 2769 4750 3195 4129 
Q 3622 3509 3622 2328 
Q 3622 1225 3098 567 
Q 2575 -91 1691 -91 
Q 1453 -91 1209 -44 
Q 966 3 703 97 
z
M 1959 2075 
Q 2384 2075 2632 2365 
Q 2881 2656 2881 3163 
Q 2881 3666 2632 3958 
Q 2384 4250 1959 4250 
Q 1534 4250 1286 3958 
Q 1038 3666 1038 3163 
Q 1038 2656 1286 2365 
Q 1534 2075 1959 2075 
z
" transform="scale(0.015625)"/>
       </defs>
       <use xlink:href="#DejaVuSans-30"/>
       <use xlink:href="#DejaVuSans-31" x="63.623047"/>
       <use xlink:href="#DejaVuSans-2e" x="127.246094"/>
       <use xlink:href="#DejaVuSans-30" x="159.033203"/>
       <use xlink:href="#DejaVuSans-33" x="222.65625"/>
       <use xlink:href="#DejaVuSans-2e" x="286.279297"/>
       <use xlink:href="#DejaVuSans-32" x="318.066406"/>
       <use xlink:href="#DejaVuSans-30" x="381.689453"/>
       <use xlink:href="#DejaVuSans-31" x="445.3125"/>
       <use xlink:href="#DejaVuSans-39" x="508.935547"/>
      </g>
     </g>
    </g>
    <g id="xtick_2">
     <g id="line2d_2">
      <g>
       <use xlink:href="#mf58f76003c" x="166.988737" y="320.4" style="stroke: #000000; stroke-width: 0.8"/>
      </g>
     </g>
     <g id="text_2">
      <!-- 01.05.2019 -->
      <g transform="translate(138.360612 334.998438) scale(0.1 -0.1)">
       <defs>
        <path id="DejaVuSans-35" d="M 691 4666 
L 3169 4666 
L 3169 4134 
L 1269 4134 
L 1269 2991 
Q 1406 3038 1543 3061 
Q 1681 3084 1819 3084 
Q 2600 3084 3056 2656 
Q 3513 2228 3513 1497 
Q 3513 744 3044 326 
Q 2575 -91 1722 -91 
Q 1428 -91 1123 -41 
Q 819 9 494 109 
L 494 744 
Q 775 591 1075 516 
Q 1375 441 1709 441 
Q 2250 441 2565 725 
Q 2881 1009 2881 1497 
Q 2881 1984 2565 2268 
Q 2250 2553 1709 2553 
Q 1456 2553 1204 2497 
Q 953 2441 691 2322 
L 691 4666 
z
" transform="scale(0.015625)"/>
       </defs>
       <use xlink:href="#DejaVuSans-30"/>
       <use xlink:href="#DejaVuSans-31" x="63.623047"/>
       <use xlink:href="#DejaVuSans-2e" x="127.246094"/>
       <use xlink:href="#DejaVuSans-30" x="159.033203"/>
       <use xlink:href="#DejaVuSans-35" x="222.65625"/>
       <use xlink:href="#DejaVuSans-2e" x="286.279297"/>
       <use xlink:href="#DejaVuSans-32" x="318.066406"/>
       <use xlink:href="#DejaVuSans-30" x="381.689453"/>
       <use xlink:href="#DejaVuSans-31" x="445.3125"/>
       <use xlink:href="#DejaVuSans-39" x="508.935547"/>
      </g>
     </g>
    </g>
    <g id="xtick_3">
     <g id="line2d_3">
      <g>
       <use xlink:href="#mf58f76003c" x="243.054706" y="320.4" style="stroke: #000000; stroke-width: 0.8"/>
      </g>
     </g>
     <g id="text_3">
      <!-- 01.07.2019 -->
      <g transform="translate(214.426581 334.998438) scale(0.1 -0.1)">
       <defs>
        <path id="DejaVuSans-37" d="M 525 4666 
L 3525 4666 
L 3525 4397 
L 1831 0 
L 1172 0 
L 2766 4134 
L 525 4134 
L 525 4666 
z
" transform="scale(0.015625)"/>
       </defs>
       <use xlink:href="#DejaVuSans-30"/>
       <use xlink:href="#DejaVuSans-31" x="63.623047"/>
       <use xlink:href="#DejaVuSans-2e" x="127.246094"/>
       <use xlink:href="#DejaVuSans-30" x="159.033203"/>
       <use xlink:href="#DejaVuSans-37" x="222.65625"/>
       <use xlink:href="#DejaVuSans-2e" x="286.279297"/>
       <use xlink:href="#DejaVuSans-32" x="318.066406"/>
       <use xlink:href="#DejaVuSans-30" x="381.689453"/>
       <use xlink:href="#DejaVuSans-31" x="445.3125"/>
       <use xlink:href="#DejaVuSans-39" x="508.935547"/>
      </g>
     </g>
    </g>
    <g id="xtick_4">
     <g id="line2d_4">
      <g>
       <use xlink:href="#mf58f76003c" x="320.367659" y="320.4" style="stroke: #000000; stroke-width: 0.8"/>
      </g>
     </g>
     <g id="text_4">
      <!-- 01.09.2019 -->
      <g transform="translate(291.739534 334.998438) scale(0.1 -0.1)">
       <use xlink:href="#DejaVuSans-30"/>
       <use xlink:href="#DejaVuSans-31" x="63.623047"/>
       <use xlink:href="#DejaVuSans-2e" x="127.246094"/>
       <use xlink:href="#DejaVuSans-30" x="159.033203"/>
       <use xlink:href="#DejaVuSans-39" x="222.65625"/>
       <use xlink:href="#DejaVuSans-2e" x="286.279297"/>
       <use xlink:href="#DejaVuSans-32" x="318.066406"/>
       <use xlink:href="#DejaVuSans-30" x="381.689453"/>
       <use xlink:href="#DejaVuSans-31" x="445.3125"/>
       <use xlink:href="#DejaVuSans-39" x="508.935547"/>
      </g>
     </g>
    </g>
    <g id="xtick_5">
     <g id="line2d_5">
      <g>
       <use xlink:href="#mf58f76003c" x="396.433628" y="320.4" style="stroke: #000000; stroke-width: 0.8"/>
      </g>
     </g>
     <g id="text_5">
      <!-- 01.11.2019 -->
      <g transform="translate(367.805503 334.998438) scale(0.1 -0.1)">
       <use xlink:href="#DejaVuSans-30"/>
       <use xlink:href="#DejaVuSans-31" x="63.623047"/>
       <use xlink:href="#DejaVuSans-2e" x="127.246094"/>
       <use xlink:href="#DejaVuSans-31" x="159.033203"/>
       <use xlink:href="#DejaVuSans-31" x="222.65625"/>
       <use xlink:href="#DejaVuSans-2e" x="286.279297"/>
       <use xlink:href="#DejaVuSans-32" x="318.066406"/>
       <use xlink:href="#DejaVuSans-30" x="381.689453"/>
       <use xlink:href="#DejaVuSans-31" x="445.3125"/>
       <use xlink:href="#DejaVuSans-39" x="508.935547"/>
      </g>
     </g>
    </g>
    <g id="xtick_6">
     <g id="line2d_6">
      <g>
       <use xlink:href="#mf58f76003c" x="472.499598" y="320.4" style="stroke: #000000; stroke-width: 0.8"/>
      </g>
     </g>
     <g id="text_6">
      <!-- 01.01.2020 -->
      <g transform="translate(443.871473 334.998438) scale(0.1 -0.1)">
       <use xlink:href="#DejaVuSans-30"/>
       <use xlink:href="#DejaVuSans-31" x="63.623047"/>
       <use xlink:href="#DejaVuSans-2e" x="127.246094"/>
       <use xlink:href="#DejaVuSans-30" x="159.033203"/>
       <use xlink:href="#DejaVuSans-31" x="222.65625"/>
       <use xlink:href="#DejaVuSans-2e" x="286.279297"/>
       <use xlink:href="#DejaVuSans-32" x="318.066406"/>
       <use xlink:href="#DejaVuSans-30" x="381.689453"/>
       <use xlink:href="#DejaVuSans-32" x="445.3125"/>
       <use xlink:href="#DejaVuSans-30" x="508.935547"/>
      </g>
     </g>
    </g>
    <g id="xtick_7">
     <g id="line2d_7">
      <g>
       <use xlink:href="#mf58f76003c" x="547.318584" y="320.4" style="stroke: #000000; stroke-width: 0.8"/>
      </g>
     </g>
     <g id="text_7">
      <!-- 01.03.2020 -->
      <g transform="translate(518.690459 334.998438) scale(0.1 -0.1)">
       <use xlink:href="#DejaVuSans-30"/>
       <use xlink:href="#DejaVuSans-31" x="63.623047"/>
       <use xlink:href="#DejaVuSans-2e" x="127.246094"/>
       <use xlink:href="#DejaVuSans-30" x="159.033203"/>
       <use xlink:href="#DejaVuSans-33" x="222.65625"/>
       <use xlink:href="#DejaVuSans-2e" x="286.279297"/>
       <use xlink:href="#DejaVuSans-32" x="318.066406"/>
       <use xlink:href="#DejaVuSans-30" x="381.689453"/>
       <use xlink:href="#DejaVuSans-32" x="445.3125"/>
       <use xlink:href="#DejaVuSans-30" x="508.935547"/>
      </g>
     </g>
    </g>
    <g id="xtick_8">
     <g id="line2d_8">
      <g>
       <use xlink:href="#mf58f76003c" x="623.384553" y="320.4" style="stroke: #000000; stroke-width: 0.8"/>
      </g>
     </g>
     <g id="text_8">
      <!-- 01.05.2020 -->
      <g transform="translate(594.756428 334.998438) scale(0.1 -0.1)">
       <use xlink:href="#DejaVuSans-30"/>
       <use xlink:href="#DejaVuSans-31" x="63.623047"/>
       <use xlink:href="#DejaVuSans-2e" x="127.246094"/>
       <use xlink:href="#DejaVuSans-30" x="159.033203"/>
       <use xlink:href="#DejaVuSans-35" x="222.65625"/>
       <use xlink:href="#DejaVuSans-2e" x="286.279297"/>
       <use xlink:href="#DejaVuSans-32" x="318.066406"/>
       <use xlink:href="#DejaVuSans-30" x="381.689453"/>
       <use xlink:href="#DejaVuSans-32" x="445.3125"/>
       <use xlink:href="#DejaVuSans-30" x="508.935547"/>
      </g>
     </g>
    </g>
    <g id="text_9">
     <!-- Date -->
     <g transform="translate(357.049219 348.676562) scale(0.1 -0.1)">
      <defs>
       <path id="DejaVuSans-44" d="M 1259 4147 
L 1259 519 
L 2022 519 
Q 2988 519 3436 956 
Q 3884 1394 3884 2338 
Q 3884 3275 3436 3711 
Q 2988 4147 2022 4147 
L 1259 4147 
z
M 628 4666 
L 1925 4666 
Q 3281 4666 3915 4102 
Q 4550 3538 4550 2338 
Q 4550 1131 3912 565 
Q 3275 0 1925 0 
L 628 0 
L 628 4666 
z
" transform="scale(0.015625)"/>
       <path id="DejaVuSans-61" d="M 2194 1759 
Q 1497 1759 1228 1600 
Q 959 1441 959 1056 
Q 959 750 1161 570 
Q 1363 391 1709 391 
Q 2188 391 2477 730 
Q 2766 1069 2766 1631 
L 2766 1759 
L 2194 1759 
z
M 3341 1997 
L 3341 0 
L 2766 0 
L 2766 531 
Q 2569 213 2275 61 
Q 1981 -91 1556 -91 
Q 1019 -91 701 211 
Q 384 513 384 1019 
Q 384 1609 779 1909 
Q 1175 2209 1959 2209 
L 2766 2209 
L 2766 2266 
Q 2766 2663 2505 2880 
Q 2244 3097 1772 3097 
Q 1472 3097 1187 3025 
Q 903 2953 641 2809 
L 641 3341 
Q 956 3463 1253 3523 
Q 1550 3584 1831 3584 
Q 2591 3584 2966 3190 
Q 3341 2797 3341 1997 
z
" transform="scale(0.015625)"/>
       <path id="DejaVuSans-74" d="M 1172 4494 
L 1172 3500 
L 2356 3500 
L 2356 3053 
L 1172 3053 
L 1172 1153 
Q 1172 725 1289 603 
Q 1406 481 1766 481 
L 2356 481 
L 2356 0 
L 1766 0 
Q 1100 0 847 248 
Q 594 497 594 1153 
L 594 3053 
L 172 3053 
L 172 3500 
L 594 3500 
L 594 4494 
L 1172 4494 
z
" transform="scale(0.015625)"/>
       <path id="DejaVuSans-65" d="M 3597 1894 
L 3597 1613 
L 953 1613 
Q 991 1019 1311 708 
Q 1631 397 2203 397 
Q 2534 397 2845 478 
Q 3156 559 3463 722 
L 3463 178 
Q 3153 47 2828 -22 
Q 2503 -91 2169 -91 
Q 1331 -91 842 396 
Q 353 884 353 1716 
Q 353 2575 817 3079 
Q 1281 3584 2069 3584 
Q 2775 3584 3186 3129 
Q 3597 2675 3597 1894 
z
M 3022 2063 
Q 3016 2534 2758 2815 
Q 2500 3097 2075 3097 
Q 1594 3097 1305 2825 
Q 1016 2553 972 2059 
L 3022 2063 
z
" transform="scale(0.015625)"/>
      </defs>
      <use xlink:href="#DejaVuSans-44"/>
      <use xlink:href="#DejaVuSans-61" x="77.001953"/>
      <use xlink:href="#DejaVuSans-74" x="138.28125"/>
      <use xlink:href="#DejaVuSans-65" x="177.490234"/>
     </g>
    </g>
   </g>
   <g id="matplotlib.axis_2">
    <g id="ytick_1">
     <g id="line2d_9">
      <defs>
       <path id="mc0f1fc0474" d="M 0 0 
L -3.5 0 
" style="stroke: #000000; stroke-width: 0.8"/>
      </defs>
      <g>
       <use xlink:href="#mc0f1fc0474" x="90" y="320.4" style="stroke: #000000; stroke-width: 0.8"/>
      </g>
     </g>
     <g id="text_10">
      <!-- 0 -->
      <g transform="translate(76.6375 324.199219) scale(0.1 -0.1)">
       <use xlink:href="#DejaVuSans-30"/>
      </g>
     </g>
    </g>
    <g id="ytick_2">
     <g id="line2d_10">
      <g>
       <use xlink:href="#mc0f1fc0474" x="90" y="274.084211" style="stroke: #000000; stroke-width: 0.8"/>
      </g>
     </g>
     <g id="text_11">
      <!-- 10 -->
      <g transform="translate(70.275 277.883429) scale(0.1 -0.1)">
       <use xlink:href="#DejaVuSans-31"/>
       <use xlink:href="#DejaVuSans-30" x="63.623047"/>
      </g>
     </g>
    </g>
    <g id="ytick_3">
     <g id="line2d_11">
      <g>
       <use xlink:href="#mc0f1fc0474" x="90" y="227.768421" style="stroke: #000000; stroke-width: 0.8"/>
      </g>
     </g>
     <g id="text_12">
      <!-- 20 -->
      <g transform="translate(70.275 231.56764) scale(0.1 -0.1)">
       <use xlink:href="#DejaVuSans-32"/>
       <use xlink:href="#DejaVuSans-30" x="63.623047"/>
      </g>
     </g>
    </g>
    <g id="ytick_4">
     <g id="line2d_12">
      <g>
       <use xlink:href="#mc0f1fc0474" x="90" y="181.452632" style="stroke: #000000; stroke-width: 0.8"/>
      </g>
     </g>
     <g id="text_13">
      <!-- 30 -->
      <g transform="translate(70.275 185.25185) scale(0.1 -0.1)">
       <use xlink:href="#DejaVuSans-33"/>
       <use xlink:href="#DejaVuSans-30" x="63.623047"/>
      </g>
     </g>
    </g>
    <g id="ytick_5">
     <g id="line2d_13">
      <g>
       <use xlink:href="#mc0f1fc0474" x="90" y="135.136842" style="stroke: #000000; stroke-width: 0.8"/>
      </g>
     </g>
     <g id="text_14">
      <!-- 40 -->
      <g transform="translate(70.275 138.936061) scale(0.1 -0.1)">
       <defs>
        <path id="DejaVuSans-34" d="M 2419 4116 
L 825 1625 
L 2419 1625 
L 2419 4116 
z
M 2253 4666 
L 3047 4666 
L 3047 1625 
L 3713 1625 
L 3713 1100 
L 3047 1100 
L 3047 0 
L 2419 0 
L 2419 1100 
L 313 1100 
L 313 1709 
L 2253 4666 
z
" transform="scale(0.015625)"/>
       </defs>
       <use xlink:href="#DejaVuSans-34"/>
       <use xlink:href="#DejaVuSans-30" x="63.623047"/>
      </g>
     </g>
    </g>
    <g id="ytick_6">
     <g id="line2d_14">
      <g>
       <use xlink:href="#mc0f1fc0474" x="90" y="88.821053" style="stroke: #000000; stroke-width: 0.8"/>
      </g>
     </g>
     <g id="text_15">
      <!-- 50 -->
      <g transform="translate(70.275 92.620271) scale(0.1 -0.1)">
       <use xlink:href="#DejaVuSans-35"/>
       <use xlink:href="#DejaVuSans-30" x="63.623047"/>
      </g>
     </g>
    </g>
    <g id="text_16">
     <!-- Number of Reddit Posts -->
     <g transform="translate(64.195312 240.558594) rotate(-90) scale(0.1 -0.1)">
      <defs>
       <path id="DejaVuSans-4e" d="M 628 4666 
L 1478 4666 
L 3547 763 
L 3547 4666 
L 4159 4666 
L 4159 0 
L 3309 0 
L 1241 3903 
L 1241 0 
L 628 0 
L 628 4666 
z
" transform="scale(0.015625)"/>
       <path id="DejaVuSans-75" d="M 544 1381 
L 544 3500 
L 1119 3500 
L 1119 1403 
Q 1119 906 1312 657 
Q 1506 409 1894 409 
Q 2359 409 2629 706 
Q 2900 1003 2900 1516 
L 2900 3500 
L 3475 3500 
L 3475 0 
L 2900 0 
L 2900 538 
Q 2691 219 2414 64 
Q 2138 -91 1772 -91 
Q 1169 -91 856 284 
Q 544 659 544 1381 
z
M 1991 3584 
L 1991 3584 
z
" transform="scale(0.015625)"/>
       <path id="DejaVuSans-6d" d="M 3328 2828 
Q 3544 3216 3844 3400 
Q 4144 3584 4550 3584 
Q 5097 3584 5394 3201 
Q 5691 2819 5691 2113 
L 5691 0 
L 5113 0 
L 5113 2094 
Q 5113 2597 4934 2840 
Q 4756 3084 4391 3084 
Q 3944 3084 3684 2787 
Q 3425 2491 3425 1978 
L 3425 0 
L 2847 0 
L 2847 2094 
Q 2847 2600 2669 2842 
Q 2491 3084 2119 3084 
Q 1678 3084 1418 2786 
Q 1159 2488 1159 1978 
L 1159 0 
L 581 0 
L 581 3500 
L 1159 3500 
L 1159 2956 
Q 1356 3278 1631 3431 
Q 1906 3584 2284 3584 
Q 2666 3584 2933 3390 
Q 3200 3197 3328 2828 
z
" transform="scale(0.015625)"/>
       <path id="DejaVuSans-62" d="M 3116 1747 
Q 3116 2381 2855 2742 
Q 2594 3103 2138 3103 
Q 1681 3103 1420 2742 
Q 1159 2381 1159 1747 
Q 1159 1113 1420 752 
Q 1681 391 2138 391 
Q 2594 391 2855 752 
Q 3116 1113 3116 1747 
z
M 1159 2969 
Q 1341 3281 1617 3432 
Q 1894 3584 2278 3584 
Q 2916 3584 3314 3078 
Q 3713 2572 3713 1747 
Q 3713 922 3314 415 
Q 2916 -91 2278 -91 
Q 1894 -91 1617 61 
Q 1341 213 1159 525 
L 1159 0 
L 581 0 
L 581 4863 
L 1159 4863 
L 1159 2969 
z
" transform="scale(0.015625)"/>
       <path id="DejaVuSans-72" d="M 2631 2963 
Q 2534 3019 2420 3045 
Q 2306 3072 2169 3072 
Q 1681 3072 1420 2755 
Q 1159 2438 1159 1844 
L 1159 0 
L 581 0 
L 581 3500 
L 1159 3500 
L 1159 2956 
Q 1341 3275 1631 3429 
Q 1922 3584 2338 3584 
Q 2397 3584 2469 3576 
Q 2541 3569 2628 3553 
L 2631 2963 
z
" transform="scale(0.015625)"/>
       <path id="DejaVuSans-20" transform="scale(0.015625)"/>
       <path id="DejaVuSans-6f" d="M 1959 3097 
Q 1497 3097 1228 2736 
Q 959 2375 959 1747 
Q 959 1119 1226 758 
Q 1494 397 1959 397 
Q 2419 397 2687 759 
Q 2956 1122 2956 1747 
Q 2956 2369 2687 2733 
Q 2419 3097 1959 3097 
z
M 1959 3584 
Q 2709 3584 3137 3096 
Q 3566 2609 3566 1747 
Q 3566 888 3137 398 
Q 2709 -91 1959 -91 
Q 1206 -91 779 398 
Q 353 888 353 1747 
Q 353 2609 779 3096 
Q 1206 3584 1959 3584 
z
" transform="scale(0.015625)"/>
       <path id="DejaVuSans-66" d="M 2375 4863 
L 2375 4384 
L 1825 4384 
Q 1516 4384 1395 4259 
Q 1275 4134 1275 3809 
L 1275 3500 
L 2222 3500 
L 2222 3053 
L 1275 3053 
L 1275 0 
L 697 0 
L 697 3053 
L 147 3053 
L 147 3500 
L 697 3500 
L 697 3744 
Q 697 4328 969 4595 
Q 1241 4863 1831 4863 
L 2375 4863 
z
" transform="scale(0.015625)"/>
       <path id="DejaVuSans-52" d="M 2841 2188 
Q 3044 2119 3236 1894 
Q 3428 1669 3622 1275 
L 4263 0 
L 3584 0 
L 2988 1197 
Q 2756 1666 2539 1819 
Q 2322 1972 1947 1972 
L 1259 1972 
L 1259 0 
L 628 0 
L 628 4666 
L 2053 4666 
Q 2853 4666 3247 4331 
Q 3641 3997 3641 3322 
Q 3641 2881 3436 2590 
Q 3231 2300 2841 2188 
z
M 1259 4147 
L 1259 2491 
L 2053 2491 
Q 2509 2491 2742 2702 
Q 2975 2913 2975 3322 
Q 2975 3731 2742 3939 
Q 2509 4147 2053 4147 
L 1259 4147 
z
" transform="scale(0.015625)"/>
       <path id="DejaVuSans-64" d="M 2906 2969 
L 2906 4863 
L 3481 4863 
L 3481 0 
L 2906 0 
L 2906 525 
Q 2725 213 2448 61 
Q 2172 -91 1784 -91 
Q 1150 -91 751 415 
Q 353 922 353 1747 
Q 353 2572 751 3078 
Q 1150 3584 1784 3584 
Q 2172 3584 2448 3432 
Q 2725 3281 2906 2969 
z
M 947 1747 
Q 947 1113 1208 752 
Q 1469 391 1925 391 
Q 2381 391 2643 752 
Q 2906 1113 2906 1747 
Q 2906 2381 2643 2742 
Q 2381 3103 1925 3103 
Q 1469 3103 1208 2742 
Q 947 2381 947 1747 
z
" transform="scale(0.015625)"/>
       <path id="DejaVuSans-69" d="M 603 3500 
L 1178 3500 
L 1178 0 
L 603 0 
L 603 3500 
z
M 603 4863 
L 1178 4863 
L 1178 4134 
L 603 4134 
L 603 4863 
z
" transform="scale(0.015625)"/>
       <path id="DejaVuSans-50" d="M 1259 4147 
L 1259 2394 
L 2053 2394 
Q 2494 2394 2734 2622 
Q 2975 2850 2975 3272 
Q 2975 3691 2734 3919 
Q 2494 4147 2053 4147 
L 1259 4147 
z
M 628 4666 
L 2053 4666 
Q 2838 4666 3239 4311 
Q 3641 3956 3641 3272 
Q 3641 2581 3239 2228 
Q 2838 1875 2053 1875 
L 1259 1875 
L 1259 0 
L 628 0 
L 628 4666 
z
" transform="scale(0.015625)"/>
       <path id="DejaVuSans-73" d="M 2834 3397 
L 2834 2853 
Q 2591 2978 2328 3040 
Q 2066 3103 1784 3103 
Q 1356 3103 1142 2972 
Q 928 2841 928 2578 
Q 928 2378 1081 2264 
Q 1234 2150 1697 2047 
L 1894 2003 
Q 2506 1872 2764 1633 
Q 3022 1394 3022 966 
Q 3022 478 2636 193 
Q 2250 -91 1575 -91 
Q 1294 -91 989 -36 
Q 684 19 347 128 
L 347 722 
Q 666 556 975 473 
Q 1284 391 1588 391 
Q 1994 391 2212 530 
Q 2431 669 2431 922 
Q 2431 1156 2273 1281 
Q 2116 1406 1581 1522 
L 1381 1569 
Q 847 1681 609 1914 
Q 372 2147 372 2553 
Q 372 3047 722 3315 
Q 1072 3584 1716 3584 
Q 2034 3584 2315 3537 
Q 2597 3491 2834 3397 
z
" transform="scale(0.015625)"/>
      </defs>
      <use xlink:href="#DejaVuSans-4e"/>
      <use xlink:href="#DejaVuSans-75" x="74.804688"/>
      <use xlink:href="#DejaVuSans-6d" x="138.183594"/>
      <use xlink:href="#DejaVuSans-62" x="235.595703"/>
      <use xlink:href="#DejaVuSans-65" x="299.072266"/>
      <use xlink:href="#DejaVuSans-72" x="360.595703"/>
      <use xlink:href="#DejaVuSans-20" x="401.708984"/>
      <use xlink:href="#DejaVuSans-6f" x="433.496094"/>
      <use xlink:href="#DejaVuSans-66" x="494.677734"/>
      <use xlink:href="#DejaVuSans-20" x="529.882812"/>
      <use xlink:href="#DejaVuSans-52" x="561.669922"/>
      <use xlink:href="#DejaVuSans-65" x="626.652344"/>
      <use xlink:href="#DejaVuSans-64" x="688.175781"/>
      <use xlink:href="#DejaVuSans-64" x="751.652344"/>
      <use xlink:href="#DejaVuSans-69" x="815.128906"/>
      <use xlink:href="#DejaVuSans-74" x="842.912109"/>
      <use xlink:href="#DejaVuSans-20" x="882.121094"/>
      <use xlink:href="#DejaVuSans-50" x="913.908203"/>
      <use xlink:href="#DejaVuSans-6f" x="970.585938"/>
      <use xlink:href="#DejaVuSans-73" x="1031.767578"/>
      <use xlink:href="#DejaVuSans-74" x="1083.867188"/>
      <use xlink:href="#DejaVuSans-73" x="1123.076172"/>
     </g>
    </g>
   </g>
   <g id="patch_157">
    <path d="M 90 320.4 
L 90 43.2 
" style="fill: none; stroke: #000000; stroke-width: 0.8; stroke-linejoin: miter; stroke-linecap: square"/>
   </g>
   <g id="patch_158">
    <path d="M 648 320.4 
L 648 43.2 
" style="fill: none; stroke: #000000; stroke-width: 0.8; stroke-linejoin: miter; stroke-linecap: square"/>
   </g>
   <g id="patch_159">
    <path d="M 90 320.4 
L 648 320.4 
" style="fill: none; stroke: #000000; stroke-width: 0.8; stroke-linejoin: miter; stroke-linecap: square"/>
   </g>
   <g id="patch_160">
    <path d="M 90 43.2 
L 648 43.2 
" style="fill: none; stroke: #000000; stroke-width: 0.8; stroke-linejoin: miter; stroke-linecap: square"/>
   </g>
   <g id="text_17">
    <!-- Reddit Activity for Borderlands-Epic-Exclusivity during time of incident -->
    <g transform="translate(157.935 37.2) scale(0.12 -0.12)">
     <defs>
      <path id="DejaVuSans-41" d="M 2188 4044 
L 1331 1722 
L 3047 1722 
L 2188 4044 
z
M 1831 4666 
L 2547 4666 
L 4325 0 
L 3669 0 
L 3244 1197 
L 1141 1197 
L 716 0 
L 50 0 
L 1831 4666 
z
" transform="scale(0.015625)"/>
      <path id="DejaVuSans-63" d="M 3122 3366 
L 3122 2828 
Q 2878 2963 2633 3030 
Q 2388 3097 2138 3097 
Q 1578 3097 1268 2742 
Q 959 2388 959 1747 
Q 959 1106 1268 751 
Q 1578 397 2138 397 
Q 2388 397 2633 464 
Q 2878 531 3122 666 
L 3122 134 
Q 2881 22 2623 -34 
Q 2366 -91 2075 -91 
Q 1284 -91 818 406 
Q 353 903 353 1747 
Q 353 2603 823 3093 
Q 1294 3584 2113 3584 
Q 2378 3584 2631 3529 
Q 2884 3475 3122 3366 
z
" transform="scale(0.015625)"/>
      <path id="DejaVuSans-76" d="M 191 3500 
L 800 3500 
L 1894 563 
L 2988 3500 
L 3597 3500 
L 2284 0 
L 1503 0 
L 191 3500 
z
" transform="scale(0.015625)"/>
      <path id="DejaVuSans-79" d="M 2059 -325 
Q 1816 -950 1584 -1140 
Q 1353 -1331 966 -1331 
L 506 -1331 
L 506 -850 
L 844 -850 
Q 1081 -850 1212 -737 
Q 1344 -625 1503 -206 
L 1606 56 
L 191 3500 
L 800 3500 
L 1894 763 
L 2988 3500 
L 3597 3500 
L 2059 -325 
z
" transform="scale(0.015625)"/>
      <path id="DejaVuSans-42" d="M 1259 2228 
L 1259 519 
L 2272 519 
Q 2781 519 3026 730 
Q 3272 941 3272 1375 
Q 3272 1813 3026 2020 
Q 2781 2228 2272 2228 
L 1259 2228 
z
M 1259 4147 
L 1259 2741 
L 2194 2741 
Q 2656 2741 2882 2914 
Q 3109 3088 3109 3444 
Q 3109 3797 2882 3972 
Q 2656 4147 2194 4147 
L 1259 4147 
z
M 628 4666 
L 2241 4666 
Q 2963 4666 3353 4366 
Q 3744 4066 3744 3513 
Q 3744 3084 3544 2831 
Q 3344 2578 2956 2516 
Q 3422 2416 3680 2098 
Q 3938 1781 3938 1306 
Q 3938 681 3513 340 
Q 3088 0 2303 0 
L 628 0 
L 628 4666 
z
" transform="scale(0.015625)"/>
      <path id="DejaVuSans-6c" d="M 603 4863 
L 1178 4863 
L 1178 0 
L 603 0 
L 603 4863 
z
" transform="scale(0.015625)"/>
      <path id="DejaVuSans-6e" d="M 3513 2113 
L 3513 0 
L 2938 0 
L 2938 2094 
Q 2938 2591 2744 2837 
Q 2550 3084 2163 3084 
Q 1697 3084 1428 2787 
Q 1159 2491 1159 1978 
L 1159 0 
L 581 0 
L 581 3500 
L 1159 3500 
L 1159 2956 
Q 1366 3272 1645 3428 
Q 1925 3584 2291 3584 
Q 2894 3584 3203 3211 
Q 3513 2838 3513 2113 
z
" transform="scale(0.015625)"/>
      <path id="DejaVuSans-2d" d="M 313 2009 
L 1997 2009 
L 1997 1497 
L 313 1497 
L 313 2009 
z
" transform="scale(0.015625)"/>
      <path id="DejaVuSans-45" d="M 628 4666 
L 3578 4666 
L 3578 4134 
L 1259 4134 
L 1259 2753 
L 3481 2753 
L 3481 2222 
L 1259 2222 
L 1259 531 
L 3634 531 
L 3634 0 
L 628 0 
L 628 4666 
z
" transform="scale(0.015625)"/>
      <path id="DejaVuSans-70" d="M 1159 525 
L 1159 -1331 
L 581 -1331 
L 581 3500 
L 1159 3500 
L 1159 2969 
Q 1341 3281 1617 3432 
Q 1894 3584 2278 3584 
Q 2916 3584 3314 3078 
Q 3713 2572 3713 1747 
Q 3713 922 3314 415 
Q 2916 -91 2278 -91 
Q 1894 -91 1617 61 
Q 1341 213 1159 525 
z
M 3116 1747 
Q 3116 2381 2855 2742 
Q 2594 3103 2138 3103 
Q 1681 3103 1420 2742 
Q 1159 2381 1159 1747 
Q 1159 1113 1420 752 
Q 1681 391 2138 391 
Q 2594 391 2855 752 
Q 3116 1113 3116 1747 
z
" transform="scale(0.015625)"/>
      <path id="DejaVuSans-78" d="M 3513 3500 
L 2247 1797 
L 3578 0 
L 2900 0 
L 1881 1375 
L 863 0 
L 184 0 
L 1544 1831 
L 300 3500 
L 978 3500 
L 1906 2253 
L 2834 3500 
L 3513 3500 
z
" transform="scale(0.015625)"/>
      <path id="DejaVuSans-67" d="M 2906 1791 
Q 2906 2416 2648 2759 
Q 2391 3103 1925 3103 
Q 1463 3103 1205 2759 
Q 947 2416 947 1791 
Q 947 1169 1205 825 
Q 1463 481 1925 481 
Q 2391 481 2648 825 
Q 2906 1169 2906 1791 
z
M 3481 434 
Q 3481 -459 3084 -895 
Q 2688 -1331 1869 -1331 
Q 1566 -1331 1297 -1286 
Q 1028 -1241 775 -1147 
L 775 -588 
Q 1028 -725 1275 -790 
Q 1522 -856 1778 -856 
Q 2344 -856 2625 -561 
Q 2906 -266 2906 331 
L 2906 616 
Q 2728 306 2450 153 
Q 2172 0 1784 0 
Q 1141 0 747 490 
Q 353 981 353 1791 
Q 353 2603 747 3093 
Q 1141 3584 1784 3584 
Q 2172 3584 2450 3431 
Q 2728 3278 2906 2969 
L 2906 3500 
L 3481 3500 
L 3481 434 
z
" transform="scale(0.015625)"/>
     </defs>
     <use xlink:href="#DejaVuSans-52"/>
     <use xlink:href="#DejaVuSans-65" x="64.982422"/>
     <use xlink:href="#DejaVuSans-64" x="126.505859"/>
     <use xlink:href="#DejaVuSans-64" x="189.982422"/>
     <use xlink:href="#DejaVuSans-69" x="253.458984"/>
     <use xlink:href="#DejaVuSans-74" x="281.242188"/>
     <use xlink:href="#DejaVuSans-20" x="320.451172"/>
     <use xlink:href="#DejaVuSans-41" x="352.238281"/>
     <use xlink:href="#DejaVuSans-63" x="418.896484"/>
     <use xlink:href="#DejaVuSans-74" x="473.876953"/>
     <use xlink:href="#DejaVuSans-69" x="513.085938"/>
     <use xlink:href="#DejaVuSans-76" x="540.869141"/>
     <use xlink:href="#DejaVuSans-69" x="600.048828"/>
     <use xlink:href="#DejaVuSans-74" x="627.832031"/>
     <use xlink:href="#DejaVuSans-79" x="667.041016"/>
     <use xlink:href="#DejaVuSans-20" x="726.220703"/>
     <use xlink:href="#DejaVuSans-66" x="758.007812"/>
     <use xlink:href="#DejaVuSans-6f" x="793.212891"/>
     <use xlink:href="#DejaVuSans-72" x="854.394531"/>
     <use xlink:href="#DejaVuSans-20" x="895.507812"/>
     <use xlink:href="#DejaVuSans-42" x="927.294922"/>
     <use xlink:href="#DejaVuSans-6f" x="995.898438"/>
     <use xlink:href="#DejaVuSans-72" x="1057.080078"/>
     <use xlink:href="#DejaVuSans-64" x="1096.443359"/>
     <use xlink:href="#DejaVuSans-65" x="1159.919922"/>
     <use xlink:href="#DejaVuSans-72" x="1221.443359"/>
     <use xlink:href="#DejaVuSans-6c" x="1262.556641"/>
     <use xlink:href="#DejaVuSans-61" x="1290.339844"/>
     <use xlink:href="#DejaVuSans-6e" x="1351.619141"/>
     <use xlink:href="#DejaVuSans-64" x="1414.998047"/>
     <use xlink:href="#DejaVuSans-73" x="1478.474609"/>
     <use xlink:href="#DejaVuSans-2d" x="1530.574219"/>
     <use xlink:href="#DejaVuSans-45" x="1566.658203"/>
     <use xlink:href="#DejaVuSans-70" x="1629.841797"/>
     <use xlink:href="#DejaVuSans-69" x="1693.318359"/>
     <use xlink:href="#DejaVuSans-63" x="1721.101562"/>
     <use xlink:href="#DejaVuSans-2d" x="1776.082031"/>
     <use xlink:href="#DejaVuSans-45" x="1812.166016"/>
     <use xlink:href="#DejaVuSans-78" x="1875.349609"/>
     <use xlink:href="#DejaVuSans-63" x="1932.779297"/>
     <use xlink:href="#DejaVuSans-6c" x="1987.759766"/>
     <use xlink:href="#DejaVuSans-75" x="2015.542969"/>
     <use xlink:href="#DejaVuSans-73" x="2078.921875"/>
     <use xlink:href="#DejaVuSans-69" x="2131.021484"/>
     <use xlink:href="#DejaVuSans-76" x="2158.804688"/>
     <use xlink:href="#DejaVuSans-69" x="2217.984375"/>
     <use xlink:href="#DejaVuSans-74" x="2245.767578"/>
     <use xlink:href="#DejaVuSans-79" x="2284.976562"/>
     <use xlink:href="#DejaVuSans-20" x="2344.15625"/>
     <use xlink:href="#DejaVuSans-64" x="2375.943359"/>
     <use xlink:href="#DejaVuSans-75" x="2439.419922"/>
     <use xlink:href="#DejaVuSans-72" x="2502.798828"/>
     <use xlink:href="#DejaVuSans-69" x="2543.912109"/>
     <use xlink:href="#DejaVuSans-6e" x="2571.695312"/>
     <use xlink:href="#DejaVuSans-67" x="2635.074219"/>
     <use xlink:href="#DejaVuSans-20" x="2698.550781"/>
     <use xlink:href="#DejaVuSans-74" x="2730.337891"/>
     <use xlink:href="#DejaVuSans-69" x="2769.546875"/>
     <use xlink:href="#DejaVuSans-6d" x="2797.330078"/>
     <use xlink:href="#DejaVuSans-65" x="2894.742188"/>
     <use xlink:href="#DejaVuSans-20" x="2956.265625"/>
     <use xlink:href="#DejaVuSans-6f" x="2988.052734"/>
     <use xlink:href="#DejaVuSans-66" x="3049.234375"/>
     <use xlink:href="#DejaVuSans-20" x="3084.439453"/>
     <use xlink:href="#DejaVuSans-69" x="3116.226562"/>
     <use xlink:href="#DejaVuSans-6e" x="3144.009766"/>
     <use xlink:href="#DejaVuSans-63" x="3207.388672"/>
     <use xlink:href="#DejaVuSans-69" x="3262.369141"/>
     <use xlink:href="#DejaVuSans-64" x="3290.152344"/>
     <use xlink:href="#DejaVuSans-65" x="3353.628906"/>
     <use xlink:href="#DejaVuSans-6e" x="3415.152344"/>
     <use xlink:href="#DejaVuSans-74" x="3478.53125"/>
    </g>
   </g>
  </g>
 </g>
 <defs>
  <clipPath id="pbbac706387">
   <rect x="90" y="43.2" width="558" height="277.2"/>
  </clipPath>
 </defs>
</svg>
