<?xml version="1.0" encoding="utf-8" standalone="no"?>
<!DOCTYPE svg PUBLIC "-//W3C//DTD SVG 1.1//EN"
  "http://www.w3.org/Graphics/SVG/1.1/DTD/svg11.dtd">
<svg xmlns:xlink="http://www.w3.org/1999/xlink" width="720pt" height="360pt" viewBox="0 0 720 360" xmlns="http://www.w3.org/2000/svg" version="1.1">
 <metadata>
  <rdf:RDF xmlns:dc="http://purl.org/dc/elements/1.1/" xmlns:cc="http://creativecommons.org/ns#" xmlns:rdf="http://www.w3.org/1999/02/22-rdf-syntax-ns#">
   <cc:Work>
    <dc:type rdf:resource="http://purl.org/dc/dcmitype/StillImage"/>
    <dc:date>2024-04-27T22:22:58.938081</dc:date>
    <dc:format>image/svg+xml</dc:format>
    <dc:creator>
     <cc:Agent>
      <dc:title>Matplotlib v3.7.1, https://matplotlib.org/</dc:title>
     </cc:Agent>
    </dc:creator>
   </cc:Work>
  </rdf:RDF>
 </metadata>
 <defs>
  <style type="text/css">*{stroke-linejoin: round; stroke-linecap: butt}</style>
 </defs>
 <g id="figure_1">
  <g id="patch_1">
   <path d="M 0 360 
L 720 360 
L 720 0 
L 0 0 
z
" style="fill: #ffffff"/>
  </g>
  <g id="axes_1">
   <g id="patch_2">
    <path d="M 90 320.4 
L 648 320.4 
L 648 43.2 
L 90 43.2 
z
" style="fill: #ffffff"/>
   </g>
   <g id="patch_3">
    <path d="M 161.201533 320.4 
L 164.257393 320.4 
L 164.257393 276.602765 
L 161.201533 276.602765 
z
" clip-path="url(#p8dbcf567cb)" style="fill: #1f77b4"/>
   </g>
   <g id="patch_4">
    <path d="M 279.616101 320.4 
L 282.671961 320.4 
L 282.671961 317.96682 
L 279.616101 317.96682 
z
" clip-path="url(#p8dbcf567cb)" style="fill: #1f77b4"/>
   </g>
   <g id="patch_5">
    <path d="M 165.021358 320.4 
L 168.077218 320.4 
L 168.077218 271.736406 
L 165.021358 271.736406 
z
" clip-path="url(#p8dbcf567cb)" style="fill: #1f77b4"/>
   </g>
   <g id="patch_6">
    <path d="M 283.435926 320.4 
L 286.491785 320.4 
L 286.491785 319.18341 
L 283.435926 319.18341 
z
" clip-path="url(#p8dbcf567cb)" style="fill: #1f77b4"/>
   </g>
   <g id="patch_7">
    <path d="M 398.030668 320.4 
L 401.086528 320.4 
L 401.086528 317.96682 
L 398.030668 317.96682 
z
" clip-path="url(#p8dbcf567cb)" style="fill: #1f77b4"/>
   </g>
   <g id="patch_8">
    <path d="M 516.445235 320.4 
L 519.501095 320.4 
L 519.501095 319.18341 
L 516.445235 319.18341 
z
" clip-path="url(#p8dbcf567cb)" style="fill: #1f77b4"/>
   </g>
   <g id="patch_9">
    <path d="M 168.841183 320.4 
L 171.897043 320.4 
L 171.897043 56.4 
L 168.841183 56.4 
z
" clip-path="url(#p8dbcf567cb)" style="fill: #1f77b4"/>
   </g>
   <g id="patch_10">
    <path d="M 287.25575 320.4 
L 290.31161 320.4 
L 290.31161 315.533641 
L 287.25575 315.533641 
z
" clip-path="url(#p8dbcf567cb)" style="fill: #1f77b4"/>
   </g>
   <g id="patch_11">
    <path d="M 401.850493 320.4 
L 404.906353 320.4 
L 404.906353 319.18341 
L 401.850493 319.18341 
z
" clip-path="url(#p8dbcf567cb)" style="fill: #1f77b4"/>
   </g>
   <g id="patch_12">
    <path d="M 520.26506 320.4 
L 523.32092 320.4 
L 523.32092 319.18341 
L 520.26506 319.18341 
z
" clip-path="url(#p8dbcf567cb)" style="fill: #1f77b4"/>
   </g>
   <g id="patch_13">
    <path d="M 172.661008 320.4 
L 175.716867 320.4 
L 175.716867 204.823963 
L 172.661008 204.823963 
z
" clip-path="url(#p8dbcf567cb)" style="fill: #1f77b4"/>
   </g>
   <g id="patch_14">
    <path d="M 291.075575 320.4 
L 294.131435 320.4 
L 294.131435 316.75023 
L 291.075575 316.75023 
z
" clip-path="url(#p8dbcf567cb)" style="fill: #1f77b4"/>
   </g>
   <g id="patch_15">
    <path d="M 405.670318 320.4 
L 408.726177 320.4 
L 408.726177 319.18341 
L 405.670318 319.18341 
z
" clip-path="url(#p8dbcf567cb)" style="fill: #1f77b4"/>
   </g>
   <g id="patch_16">
    <path d="M 524.084885 320.4 
L 527.140745 320.4 
L 527.140745 319.18341 
L 524.084885 319.18341 
z
" clip-path="url(#p8dbcf567cb)" style="fill: #1f77b4"/>
   </g>
   <g id="patch_17">
    <path d="M 176.480832 320.4 
L 179.536692 320.4 
L 179.536692 258.353917 
L 176.480832 258.353917 
z
" clip-path="url(#p8dbcf567cb)" style="fill: #1f77b4"/>
   </g>
   <g id="patch_18">
    <path d="M 294.8954 320.4 
L 297.95126 320.4 
L 297.95126 315.533641 
L 294.8954 315.533641 
z
" clip-path="url(#p8dbcf567cb)" style="fill: #1f77b4"/>
   </g>
   <g id="patch_19">
    <path d="M 409.490142 320.4 
L 412.546002 320.4 
L 412.546002 316.75023 
L 409.490142 316.75023 
z
" clip-path="url(#p8dbcf567cb)" style="fill: #1f77b4"/>
   </g>
   <g id="patch_20">
    <path d="M 180.300657 320.4 
L 183.356517 320.4 
L 183.356517 254.704147 
L 180.300657 254.704147 
z
" clip-path="url(#p8dbcf567cb)" style="fill: #1f77b4"/>
   </g>
   <g id="patch_21">
    <path d="M 298.715225 320.4 
L 301.771084 320.4 
L 301.771084 317.96682 
L 298.715225 317.96682 
z
" clip-path="url(#p8dbcf567cb)" style="fill: #1f77b4"/>
   </g>
   <g id="patch_22">
    <path d="M 184.120482 320.4 
L 187.176342 320.4 
L 187.176342 257.137327 
L 184.120482 257.137327 
z
" clip-path="url(#p8dbcf567cb)" style="fill: #1f77b4"/>
   </g>
   <g id="patch_23">
    <path d="M 302.535049 320.4 
L 305.590909 320.4 
L 305.590909 315.533641 
L 302.535049 315.533641 
z
" clip-path="url(#p8dbcf567cb)" style="fill: #1f77b4"/>
   </g>
   <g id="patch_24">
    <path d="M 417.129792 320.4 
L 420.185652 320.4 
L 420.185652 316.75023 
L 417.129792 316.75023 
z
" clip-path="url(#p8dbcf567cb)" style="fill: #1f77b4"/>
   </g>
   <g id="patch_25">
    <path d="M 535.544359 320.4 
L 538.600219 320.4 
L 538.600219 319.18341 
L 535.544359 319.18341 
z
" clip-path="url(#p8dbcf567cb)" style="fill: #1f77b4"/>
   </g>
   <g id="patch_26">
    <path d="M 187.940307 320.4 
L 190.996166 320.4 
L 190.996166 292.418433 
L 187.940307 292.418433 
z
" clip-path="url(#p8dbcf567cb)" style="fill: #1f77b4"/>
   </g>
   <g id="patch_27">
    <path d="M 306.354874 320.4 
L 309.410734 320.4 
L 309.410734 319.18341 
L 306.354874 319.18341 
z
" clip-path="url(#p8dbcf567cb)" style="fill: #1f77b4"/>
   </g>
   <g id="patch_28">
    <path d="M 420.949617 320.4 
L 424.005476 320.4 
L 424.005476 317.96682 
L 420.949617 317.96682 
z
" clip-path="url(#p8dbcf567cb)" style="fill: #1f77b4"/>
   </g>
   <g id="patch_29">
    <path d="M 539.364184 320.4 
L 542.420044 320.4 
L 542.420044 319.18341 
L 539.364184 319.18341 
z
" clip-path="url(#p8dbcf567cb)" style="fill: #1f77b4"/>
   </g>
   <g id="patch_30">
    <path d="M 191.760131 320.4 
L 194.815991 320.4 
L 194.815991 292.418433 
L 191.760131 292.418433 
z
" clip-path="url(#p8dbcf567cb)" style="fill: #1f77b4"/>
   </g>
   <g id="patch_31">
    <path d="M 310.174699 320.4 
L 313.230559 320.4 
L 313.230559 317.96682 
L 310.174699 317.96682 
z
" clip-path="url(#p8dbcf567cb)" style="fill: #1f77b4"/>
   </g>
   <g id="patch_32">
    <path d="M 424.769441 320.4 
L 427.825301 320.4 
L 427.825301 319.18341 
L 424.769441 319.18341 
z
" clip-path="url(#p8dbcf567cb)" style="fill: #1f77b4"/>
   </g>
   <g id="patch_33">
    <path d="M 543.184009 320.4 
L 546.239869 320.4 
L 546.239869 319.18341 
L 543.184009 319.18341 
z
" clip-path="url(#p8dbcf567cb)" style="fill: #1f77b4"/>
   </g>
   <g id="patch_34">
    <path d="M 195.579956 320.4 
L 198.635816 320.4 
L 198.635816 294.851613 
L 195.579956 294.851613 
z
" clip-path="url(#p8dbcf567cb)" style="fill: #1f77b4"/>
   </g>
   <g id="patch_35">
    <path d="M 313.994524 320.4 
L 317.050383 320.4 
L 317.050383 319.18341 
L 313.994524 319.18341 
z
" clip-path="url(#p8dbcf567cb)" style="fill: #1f77b4"/>
   </g>
   <g id="patch_36">
    <path d="M 199.399781 320.4 
L 202.455641 320.4 
L 202.455641 304.584332 
L 199.399781 304.584332 
z
" clip-path="url(#p8dbcf567cb)" style="fill: #1f77b4"/>
   </g>
   <g id="patch_37">
    <path d="M 317.814348 320.4 
L 320.870208 320.4 
L 320.870208 319.18341 
L 317.814348 319.18341 
z
" clip-path="url(#p8dbcf567cb)" style="fill: #1f77b4"/>
   </g>
   <g id="patch_38">
    <path d="M 203.219606 320.4 
L 206.275465 320.4 
L 206.275465 308.234101 
L 203.219606 308.234101 
z
" clip-path="url(#p8dbcf567cb)" style="fill: #1f77b4"/>
   </g>
   <g id="patch_39">
    <path d="M 321.634173 320.4 
L 324.690033 320.4 
L 324.690033 317.96682 
L 321.634173 317.96682 
z
" clip-path="url(#p8dbcf567cb)" style="fill: #1f77b4"/>
   </g>
   <g id="patch_40">
    <path d="M 436.228916 320.4 
L 439.284775 320.4 
L 439.284775 317.96682 
L 436.228916 317.96682 
z
" clip-path="url(#p8dbcf567cb)" style="fill: #1f77b4"/>
   </g>
   <g id="patch_41">
    <path d="M 554.643483 320.4 
L 557.699343 320.4 
L 557.699343 317.96682 
L 554.643483 317.96682 
z
" clip-path="url(#p8dbcf567cb)" style="fill: #1f77b4"/>
   </g>
   <g id="patch_42">
    <path d="M 207.03943 320.4 
L 210.09529 320.4 
L 210.09529 315.533641 
L 207.03943 315.533641 
z
" clip-path="url(#p8dbcf567cb)" style="fill: #1f77b4"/>
   </g>
   <g id="patch_43">
    <path d="M 325.453998 320.4 
L 328.509858 320.4 
L 328.509858 319.18341 
L 325.453998 319.18341 
z
" clip-path="url(#p8dbcf567cb)" style="fill: #1f77b4"/>
   </g>
   <g id="patch_44">
    <path d="M 440.04874 320.4 
L 443.1046 320.4 
L 443.1046 319.18341 
L 440.04874 319.18341 
z
" clip-path="url(#p8dbcf567cb)" style="fill: #1f77b4"/>
   </g>
   <g id="patch_45">
    <path d="M 210.859255 320.4 
L 213.915115 320.4 
L 213.915115 293.635023 
L 210.859255 293.635023 
z
" clip-path="url(#p8dbcf567cb)" style="fill: #1f77b4"/>
   </g>
   <g id="patch_46">
    <path d="M 329.273823 320.4 
L 332.329682 320.4 
L 332.329682 319.18341 
L 329.273823 319.18341 
z
" clip-path="url(#p8dbcf567cb)" style="fill: #1f77b4"/>
   </g>
   <g id="patch_47">
    <path d="M 443.868565 320.4 
L 446.924425 320.4 
L 446.924425 319.18341 
L 443.868565 319.18341 
z
" clip-path="url(#p8dbcf567cb)" style="fill: #1f77b4"/>
   </g>
   <g id="patch_48">
    <path d="M 562.283133 320.4 
L 565.338992 320.4 
L 565.338992 319.18341 
L 562.283133 319.18341 
z
" clip-path="url(#p8dbcf567cb)" style="fill: #1f77b4"/>
   </g>
   <g id="patch_49">
    <path d="M 214.67908 320.4 
L 217.73494 320.4 
L 217.73494 258.353917 
L 214.67908 258.353917 
z
" clip-path="url(#p8dbcf567cb)" style="fill: #1f77b4"/>
   </g>
   <g id="patch_50">
    <path d="M 333.093647 320.4 
L 336.149507 320.4 
L 336.149507 319.18341 
L 333.093647 319.18341 
z
" clip-path="url(#p8dbcf567cb)" style="fill: #1f77b4"/>
   </g>
   <g id="patch_51">
    <path d="M 447.68839 320.4 
L 450.74425 320.4 
L 450.74425 319.18341 
L 447.68839 319.18341 
z
" clip-path="url(#p8dbcf567cb)" style="fill: #1f77b4"/>
   </g>
   <g id="patch_52">
    <path d="M 566.102957 320.4 
L 569.158817 320.4 
L 569.158817 317.96682 
L 566.102957 317.96682 
z
" clip-path="url(#p8dbcf567cb)" style="fill: #1f77b4"/>
   </g>
   <g id="patch_53">
    <path d="M 218.498905 320.4 
L 221.554765 320.4 
L 221.554765 283.902304 
L 218.498905 283.902304 
z
" clip-path="url(#p8dbcf567cb)" style="fill: #1f77b4"/>
   </g>
   <g id="patch_54">
    <path d="M 336.913472 320.4 
L 339.969332 320.4 
L 339.969332 317.96682 
L 336.913472 317.96682 
z
" clip-path="url(#p8dbcf567cb)" style="fill: #1f77b4"/>
   </g>
   <g id="patch_55">
    <path d="M 569.922782 320.4 
L 572.978642 320.4 
L 572.978642 319.18341 
L 569.922782 319.18341 
z
" clip-path="url(#p8dbcf567cb)" style="fill: #1f77b4"/>
   </g>
   <g id="patch_56">
    <path d="M 115.363636 320.4 
L 118.419496 320.4 
L 118.419496 317.96682 
L 115.363636 317.96682 
z
" clip-path="url(#p8dbcf567cb)" style="fill: #1f77b4"/>
   </g>
   <g id="patch_57">
    <path d="M 222.318729 320.4 
L 225.374589 320.4 
L 225.374589 288.768664 
L 222.318729 288.768664 
z
" clip-path="url(#p8dbcf567cb)" style="fill: #1f77b4"/>
   </g>
   <g id="patch_58">
    <path d="M 340.733297 320.4 
L 343.789157 320.4 
L 343.789157 317.96682 
L 340.733297 317.96682 
z
" clip-path="url(#p8dbcf567cb)" style="fill: #1f77b4"/>
   </g>
   <g id="patch_59">
    <path d="M 455.328039 320.4 
L 458.383899 320.4 
L 458.383899 317.96682 
L 455.328039 317.96682 
z
" clip-path="url(#p8dbcf567cb)" style="fill: #1f77b4"/>
   </g>
   <g id="patch_60">
    <path d="M 119.183461 320.4 
L 122.239321 320.4 
L 122.239321 319.18341 
L 119.183461 319.18341 
z
" clip-path="url(#p8dbcf567cb)" style="fill: #1f77b4"/>
   </g>
   <g id="patch_61">
    <path d="M 226.138554 320.4 
L 229.194414 320.4 
L 229.194414 302.151152 
L 226.138554 302.151152 
z
" clip-path="url(#p8dbcf567cb)" style="fill: #1f77b4"/>
   </g>
   <g id="patch_62">
    <path d="M 344.553122 320.4 
L 347.608981 320.4 
L 347.608981 316.75023 
L 344.553122 316.75023 
z
" clip-path="url(#p8dbcf567cb)" style="fill: #1f77b4"/>
   </g>
   <g id="patch_63">
    <path d="M 459.147864 320.4 
L 462.203724 320.4 
L 462.203724 317.96682 
L 459.147864 317.96682 
z
" clip-path="url(#p8dbcf567cb)" style="fill: #1f77b4"/>
   </g>
   <g id="patch_64">
    <path d="M 577.562432 320.4 
L 580.618291 320.4 
L 580.618291 316.75023 
L 577.562432 316.75023 
z
" clip-path="url(#p8dbcf567cb)" style="fill: #1f77b4"/>
   </g>
   <g id="patch_65">
    <path d="M 229.958379 320.4 
L 233.014239 320.4 
L 233.014239 304.584332 
L 229.958379 304.584332 
z
" clip-path="url(#p8dbcf567cb)" style="fill: #1f77b4"/>
   </g>
   <g id="patch_66">
    <path d="M 126.823111 320.4 
L 129.87897 320.4 
L 129.87897 317.96682 
L 126.823111 317.96682 
z
" clip-path="url(#p8dbcf567cb)" style="fill: #1f77b4"/>
   </g>
   <g id="patch_67">
    <path d="M 233.778204 320.4 
L 236.834064 320.4 
L 236.834064 302.151152 
L 233.778204 302.151152 
z
" clip-path="url(#p8dbcf567cb)" style="fill: #1f77b4"/>
   </g>
   <g id="patch_68">
    <path d="M 352.192771 320.4 
L 355.248631 320.4 
L 355.248631 314.317051 
L 352.192771 314.317051 
z
" clip-path="url(#p8dbcf567cb)" style="fill: #1f77b4"/>
   </g>
   <g id="patch_69">
    <path d="M 466.787514 320.4 
L 469.843373 320.4 
L 469.843373 319.18341 
L 466.787514 319.18341 
z
" clip-path="url(#p8dbcf567cb)" style="fill: #1f77b4"/>
   </g>
   <g id="patch_70">
    <path d="M 130.642935 320.4 
L 133.698795 320.4 
L 133.698795 319.18341 
L 130.642935 319.18341 
z
" clip-path="url(#p8dbcf567cb)" style="fill: #1f77b4"/>
   </g>
   <g id="patch_71">
    <path d="M 237.598028 320.4 
L 240.653888 320.4 
L 240.653888 287.552074 
L 237.598028 287.552074 
z
" clip-path="url(#p8dbcf567cb)" style="fill: #1f77b4"/>
   </g>
   <g id="patch_72">
    <path d="M 470.607338 320.4 
L 473.663198 320.4 
L 473.663198 316.75023 
L 470.607338 316.75023 
z
" clip-path="url(#p8dbcf567cb)" style="fill: #1f77b4"/>
   </g>
   <g id="patch_73">
    <path d="M 589.021906 320.4 
L 592.077766 320.4 
L 592.077766 315.533641 
L 589.021906 315.533641 
z
" clip-path="url(#p8dbcf567cb)" style="fill: #1f77b4"/>
   </g>
   <g id="patch_74">
    <path d="M 134.46276 320.4 
L 137.51862 320.4 
L 137.51862 319.18341 
L 134.46276 319.18341 
z
" clip-path="url(#p8dbcf567cb)" style="fill: #1f77b4"/>
   </g>
   <g id="patch_75">
    <path d="M 241.417853 320.4 
L 244.473713 320.4 
L 244.473713 287.552074 
L 241.417853 287.552074 
z
" clip-path="url(#p8dbcf567cb)" style="fill: #1f77b4"/>
   </g>
   <g id="patch_76">
    <path d="M 359.832421 320.4 
L 362.88828 320.4 
L 362.88828 316.75023 
L 359.832421 316.75023 
z
" clip-path="url(#p8dbcf567cb)" style="fill: #1f77b4"/>
   </g>
   <g id="patch_77">
    <path d="M 474.427163 320.4 
L 477.483023 320.4 
L 477.483023 319.18341 
L 474.427163 319.18341 
z
" clip-path="url(#p8dbcf567cb)" style="fill: #1f77b4"/>
   </g>
   <g id="patch_78">
    <path d="M 138.282585 320.4 
L 141.338445 320.4 
L 141.338445 308.234101 
L 138.282585 308.234101 
z
" clip-path="url(#p8dbcf567cb)" style="fill: #1f77b4"/>
   </g>
   <g id="patch_79">
    <path d="M 245.237678 320.4 
L 248.293538 320.4 
L 248.293538 271.736406 
L 245.237678 271.736406 
z
" clip-path="url(#p8dbcf567cb)" style="fill: #1f77b4"/>
   </g>
   <g id="patch_80">
    <path d="M 363.652245 320.4 
L 366.708105 320.4 
L 366.708105 319.18341 
L 363.652245 319.18341 
z
" clip-path="url(#p8dbcf567cb)" style="fill: #1f77b4"/>
   </g>
   <g id="patch_81">
    <path d="M 142.10241 320.4 
L 145.158269 320.4 
L 145.158269 277.819355 
L 142.10241 277.819355 
z
" clip-path="url(#p8dbcf567cb)" style="fill: #1f77b4"/>
   </g>
   <g id="patch_82">
    <path d="M 249.057503 320.4 
L 252.113363 320.4 
L 252.113363 294.851613 
L 249.057503 294.851613 
z
" clip-path="url(#p8dbcf567cb)" style="fill: #1f77b4"/>
   </g>
   <g id="patch_83">
    <path d="M 600.48138 320.4 
L 603.53724 320.4 
L 603.53724 315.533641 
L 600.48138 315.533641 
z
" clip-path="url(#p8dbcf567cb)" style="fill: #1f77b4"/>
   </g>
   <g id="patch_84">
    <path d="M 145.922234 320.4 
L 148.978094 320.4 
L 148.978094 282.685714 
L 145.922234 282.685714 
z
" clip-path="url(#p8dbcf567cb)" style="fill: #1f77b4"/>
   </g>
   <g id="patch_85">
    <path d="M 252.877327 320.4 
L 255.933187 320.4 
L 255.933187 299.717972 
L 252.877327 299.717972 
z
" clip-path="url(#p8dbcf567cb)" style="fill: #1f77b4"/>
   </g>
   <g id="patch_86">
    <path d="M 371.291895 320.4 
L 374.347755 320.4 
L 374.347755 319.18341 
L 371.291895 319.18341 
z
" clip-path="url(#p8dbcf567cb)" style="fill: #1f77b4"/>
   </g>
   <g id="patch_87">
    <path d="M 485.886637 320.4 
L 488.942497 320.4 
L 488.942497 317.96682 
L 485.886637 317.96682 
z
" clip-path="url(#p8dbcf567cb)" style="fill: #1f77b4"/>
   </g>
   <g id="patch_88">
    <path d="M 149.742059 320.4 
L 152.797919 320.4 
L 152.797919 302.151152 
L 149.742059 302.151152 
z
" clip-path="url(#p8dbcf567cb)" style="fill: #1f77b4"/>
   </g>
   <g id="patch_89">
    <path d="M 256.697152 320.4 
L 259.753012 320.4 
L 259.753012 309.450691 
L 256.697152 309.450691 
z
" clip-path="url(#p8dbcf567cb)" style="fill: #1f77b4"/>
   </g>
   <g id="patch_90">
    <path d="M 489.706462 320.4 
L 492.762322 320.4 
L 492.762322 319.18341 
L 489.706462 319.18341 
z
" clip-path="url(#p8dbcf567cb)" style="fill: #1f77b4"/>
   </g>
   <g id="patch_91">
    <path d="M 608.12103 320.4 
L 611.176889 320.4 
L 611.176889 317.96682 
L 608.12103 317.96682 
z
" clip-path="url(#p8dbcf567cb)" style="fill: #1f77b4"/>
   </g>
   <g id="patch_92">
    <path d="M 153.561884 320.4 
L 156.617744 320.4 
L 156.617744 282.685714 
L 153.561884 282.685714 
z
" clip-path="url(#p8dbcf567cb)" style="fill: #1f77b4"/>
   </g>
   <g id="patch_93">
    <path d="M 260.516977 320.4 
L 263.572837 320.4 
L 263.572837 299.717972 
L 260.516977 299.717972 
z
" clip-path="url(#p8dbcf567cb)" style="fill: #1f77b4"/>
   </g>
   <g id="patch_94">
    <path d="M 378.931544 320.4 
L 381.987404 320.4 
L 381.987404 319.18341 
L 378.931544 319.18341 
z
" clip-path="url(#p8dbcf567cb)" style="fill: #1f77b4"/>
   </g>
   <g id="patch_95">
    <path d="M 611.940854 320.4 
L 614.996714 320.4 
L 614.996714 319.18341 
L 611.940854 319.18341 
z
" clip-path="url(#p8dbcf567cb)" style="fill: #1f77b4"/>
   </g>
   <g id="patch_96">
    <path d="M 157.381709 320.4 
L 160.437568 320.4 
L 160.437568 286.335484 
L 157.381709 286.335484 
z
" clip-path="url(#p8dbcf567cb)" style="fill: #1f77b4"/>
   </g>
   <g id="patch_97">
    <path d="M 264.336802 320.4 
L 267.392662 320.4 
L 267.392662 304.584332 
L 264.336802 304.584332 
z
" clip-path="url(#p8dbcf567cb)" style="fill: #1f77b4"/>
   </g>
   <g id="patch_98">
    <path d="M 382.751369 320.4 
L 385.807229 320.4 
L 385.807229 316.75023 
L 382.751369 316.75023 
z
" clip-path="url(#p8dbcf567cb)" style="fill: #1f77b4"/>
   </g>
   <g id="patch_99">
    <path d="M 497.346112 320.4 
L 500.401972 320.4 
L 500.401972 316.75023 
L 497.346112 316.75023 
z
" clip-path="url(#p8dbcf567cb)" style="fill: #1f77b4"/>
   </g>
   <g id="patch_100">
    <path d="M 615.760679 320.4 
L 618.816539 320.4 
L 618.816539 313.100461 
L 615.760679 313.100461 
z
" clip-path="url(#p8dbcf567cb)" style="fill: #1f77b4"/>
   </g>
   <g id="patch_101">
    <path d="M 268.156627 320.4 
L 271.212486 320.4 
L 271.212486 308.234101 
L 268.156627 308.234101 
z
" clip-path="url(#p8dbcf567cb)" style="fill: #1f77b4"/>
   </g>
   <g id="patch_102">
    <path d="M 386.571194 320.4 
L 389.627054 320.4 
L 389.627054 319.18341 
L 386.571194 319.18341 
z
" clip-path="url(#p8dbcf567cb)" style="fill: #1f77b4"/>
   </g>
   <g id="patch_103">
    <path d="M 619.580504 320.4 
L 622.636364 320.4 
L 622.636364 319.18341 
L 619.580504 319.18341 
z
" clip-path="url(#p8dbcf567cb)" style="fill: #1f77b4"/>
   </g>
   <g id="patch_104">
    <path d="M 271.976451 320.4 
L 275.032311 320.4 
L 275.032311 303.367742 
L 271.976451 303.367742 
z
" clip-path="url(#p8dbcf567cb)" style="fill: #1f77b4"/>
   </g>
   <g id="patch_105">
    <path d="M 390.391019 320.4 
L 393.446878 320.4 
L 393.446878 319.18341 
L 390.391019 319.18341 
z
" clip-path="url(#p8dbcf567cb)" style="fill: #1f77b4"/>
   </g>
   <g id="patch_106">
    <path d="M 275.796276 320.4 
L 278.852136 320.4 
L 278.852136 303.367742 
L 275.796276 303.367742 
z
" clip-path="url(#p8dbcf567cb)" style="fill: #1f77b4"/>
   </g>
   <g id="patch_107">
    <path d="M 508.805586 320.4 
L 511.861446 320.4 
L 511.861446 319.18341 
L 508.805586 319.18341 
z
" clip-path="url(#p8dbcf567cb)" style="fill: #1f77b4"/>
   </g>
   <g id="matplotlib.axis_1">
    <g id="xtick_1">
     <g id="line2d_1">
      <defs>
       <path id="m3b44a07397" d="M 0 0 
L 0 3.5 
" style="stroke: #000000; stroke-width: 0.8"/>
      </defs>
      <g>
       <use xlink:href="#m3b44a07397" x="109.251917" y="320.4" style="stroke: #000000; stroke-width: 0.8"/>
      </g>
     </g>
     <g id="text_1">
      <!-- 15.02.2022 -->
      <g transform="translate(80.623792 334.998438) scale(0.1 -0.1)">
       <defs>
        <path id="DejaVuSans-31" d="M 794 531 
L 1825 531 
L 1825 4091 
L 703 3866 
L 703 4441 
L 1819 4666 
L 2450 4666 
L 2450 531 
L 3481 531 
L 3481 0 
L 794 0 
L 794 531 
z
" transform="scale(0.015625)"/>
        <path id="DejaVuSans-35" d="M 691 4666 
L 3169 4666 
L 3169 4134 
L 1269 4134 
L 1269 2991 
Q 1406 3038 1543 3061 
Q 1681 3084 1819 3084 
Q 2600 3084 3056 2656 
Q 3513 2228 3513 1497 
Q 3513 744 3044 326 
Q 2575 -91 1722 -91 
Q 1428 -91 1123 -41 
Q 819 9 494 109 
L 494 744 
Q 775 591 1075 516 
Q 1375 441 1709 441 
Q 2250 441 2565 725 
Q 2881 1009 2881 1497 
Q 2881 1984 2565 2268 
Q 2250 2553 1709 2553 
Q 1456 2553 1204 2497 
Q 953 2441 691 2322 
L 691 4666 
z
" transform="scale(0.015625)"/>
        <path id="DejaVuSans-2e" d="M 684 794 
L 1344 794 
L 1344 0 
L 684 0 
L 684 794 
z
" transform="scale(0.015625)"/>
        <path id="DejaVuSans-30" d="M 2034 4250 
Q 1547 4250 1301 3770 
Q 1056 3291 1056 2328 
Q 1056 1369 1301 889 
Q 1547 409 2034 409 
Q 2525 409 2770 889 
Q 3016 1369 3016 2328 
Q 3016 3291 2770 3770 
Q 2525 4250 2034 4250 
z
M 2034 4750 
Q 2819 4750 3233 4129 
Q 3647 3509 3647 2328 
Q 3647 1150 3233 529 
Q 2819 -91 2034 -91 
Q 1250 -91 836 529 
Q 422 1150 422 2328 
Q 422 3509 836 4129 
Q 1250 4750 2034 4750 
z
" transform="scale(0.015625)"/>
        <path id="DejaVuSans-32" d="M 1228 531 
L 3431 531 
L 3431 0 
L 469 0 
L 469 531 
Q 828 903 1448 1529 
Q 2069 2156 2228 2338 
Q 2531 2678 2651 2914 
Q 2772 3150 2772 3378 
Q 2772 3750 2511 3984 
Q 2250 4219 1831 4219 
Q 1534 4219 1204 4116 
Q 875 4013 500 3803 
L 500 4441 
Q 881 4594 1212 4672 
Q 1544 4750 1819 4750 
Q 2544 4750 2975 4387 
Q 3406 4025 3406 3419 
Q 3406 3131 3298 2873 
Q 3191 2616 2906 2266 
Q 2828 2175 2409 1742 
Q 1991 1309 1228 531 
z
" transform="scale(0.015625)"/>
       </defs>
       <use xlink:href="#DejaVuSans-31"/>
       <use xlink:href="#DejaVuSans-35" x="63.623047"/>
       <use xlink:href="#DejaVuSans-2e" x="127.246094"/>
       <use xlink:href="#DejaVuSans-30" x="159.033203"/>
       <use xlink:href="#DejaVuSans-32" x="222.65625"/>
       <use xlink:href="#DejaVuSans-2e" x="286.279297"/>
       <use xlink:href="#DejaVuSans-32" x="318.066406"/>
       <use xlink:href="#DejaVuSans-30" x="381.689453"/>
       <use xlink:href="#DejaVuSans-32" x="445.3125"/>
       <use xlink:href="#DejaVuSans-32" x="508.935547"/>
      </g>
     </g>
    </g>
    <g id="xtick_2">
     <g id="line2d_2">
      <g>
       <use xlink:href="#m3b44a07397" x="162.729463" y="320.4" style="stroke: #000000; stroke-width: 0.8"/>
      </g>
     </g>
     <g id="text_2">
      <!-- 01.03.2022 -->
      <g transform="translate(134.101338 334.998438) scale(0.1 -0.1)">
       <defs>
        <path id="DejaVuSans-33" d="M 2597 2516 
Q 3050 2419 3304 2112 
Q 3559 1806 3559 1356 
Q 3559 666 3084 287 
Q 2609 -91 1734 -91 
Q 1441 -91 1130 -33 
Q 819 25 488 141 
L 488 750 
Q 750 597 1062 519 
Q 1375 441 1716 441 
Q 2309 441 2620 675 
Q 2931 909 2931 1356 
Q 2931 1769 2642 2001 
Q 2353 2234 1838 2234 
L 1294 2234 
L 1294 2753 
L 1863 2753 
Q 2328 2753 2575 2939 
Q 2822 3125 2822 3475 
Q 2822 3834 2567 4026 
Q 2313 4219 1838 4219 
Q 1578 4219 1281 4162 
Q 984 4106 628 3988 
L 628 4550 
Q 988 4650 1302 4700 
Q 1616 4750 1894 4750 
Q 2613 4750 3031 4423 
Q 3450 4097 3450 3541 
Q 3450 3153 3228 2886 
Q 3006 2619 2597 2516 
z
" transform="scale(0.015625)"/>
       </defs>
       <use xlink:href="#DejaVuSans-30"/>
       <use xlink:href="#DejaVuSans-31" x="63.623047"/>
       <use xlink:href="#DejaVuSans-2e" x="127.246094"/>
       <use xlink:href="#DejaVuSans-30" x="159.033203"/>
       <use xlink:href="#DejaVuSans-33" x="222.65625"/>
       <use xlink:href="#DejaVuSans-2e" x="286.279297"/>
       <use xlink:href="#DejaVuSans-32" x="318.066406"/>
       <use xlink:href="#DejaVuSans-30" x="381.689453"/>
       <use xlink:href="#DejaVuSans-32" x="445.3125"/>
       <use xlink:href="#DejaVuSans-32" x="508.935547"/>
      </g>
     </g>
    </g>
    <g id="xtick_3">
     <g id="line2d_3">
      <g>
       <use xlink:href="#m3b44a07397" x="216.20701" y="320.4" style="stroke: #000000; stroke-width: 0.8"/>
      </g>
     </g>
     <g id="text_3">
      <!-- 15.03.2022 -->
      <g transform="translate(187.578885 334.998438) scale(0.1 -0.1)">
       <use xlink:href="#DejaVuSans-31"/>
       <use xlink:href="#DejaVuSans-35" x="63.623047"/>
       <use xlink:href="#DejaVuSans-2e" x="127.246094"/>
       <use xlink:href="#DejaVuSans-30" x="159.033203"/>
       <use xlink:href="#DejaVuSans-33" x="222.65625"/>
       <use xlink:href="#DejaVuSans-2e" x="286.279297"/>
       <use xlink:href="#DejaVuSans-32" x="318.066406"/>
       <use xlink:href="#DejaVuSans-30" x="381.689453"/>
       <use xlink:href="#DejaVuSans-32" x="445.3125"/>
       <use xlink:href="#DejaVuSans-32" x="508.935547"/>
      </g>
     </g>
    </g>
    <g id="xtick_4">
     <g id="line2d_4">
      <g>
       <use xlink:href="#m3b44a07397" x="281.144031" y="320.4" style="stroke: #000000; stroke-width: 0.8"/>
      </g>
     </g>
     <g id="text_4">
      <!-- 01.04.2022 -->
      <g transform="translate(252.515906 334.998438) scale(0.1 -0.1)">
       <defs>
        <path id="DejaVuSans-34" d="M 2419 4116 
L 825 1625 
L 2419 1625 
L 2419 4116 
z
M 2253 4666 
L 3047 4666 
L 3047 1625 
L 3713 1625 
L 3713 1100 
L 3047 1100 
L 3047 0 
L 2419 0 
L 2419 1100 
L 313 1100 
L 313 1709 
L 2253 4666 
z
" transform="scale(0.015625)"/>
       </defs>
       <use xlink:href="#DejaVuSans-30"/>
       <use xlink:href="#DejaVuSans-31" x="63.623047"/>
       <use xlink:href="#DejaVuSans-2e" x="127.246094"/>
       <use xlink:href="#DejaVuSans-30" x="159.033203"/>
       <use xlink:href="#DejaVuSans-34" x="222.65625"/>
       <use xlink:href="#DejaVuSans-2e" x="286.279297"/>
       <use xlink:href="#DejaVuSans-32" x="318.066406"/>
       <use xlink:href="#DejaVuSans-30" x="381.689453"/>
       <use xlink:href="#DejaVuSans-32" x="445.3125"/>
       <use xlink:href="#DejaVuSans-32" x="508.935547"/>
      </g>
     </g>
    </g>
    <g id="xtick_5">
     <g id="line2d_5">
      <g>
       <use xlink:href="#m3b44a07397" x="334.621577" y="320.4" style="stroke: #000000; stroke-width: 0.8"/>
      </g>
     </g>
     <g id="text_5">
      <!-- 15.04.2022 -->
      <g transform="translate(305.993452 334.998438) scale(0.1 -0.1)">
       <use xlink:href="#DejaVuSans-31"/>
       <use xlink:href="#DejaVuSans-35" x="63.623047"/>
       <use xlink:href="#DejaVuSans-2e" x="127.246094"/>
       <use xlink:href="#DejaVuSans-30" x="159.033203"/>
       <use xlink:href="#DejaVuSans-34" x="222.65625"/>
       <use xlink:href="#DejaVuSans-2e" x="286.279297"/>
       <use xlink:href="#DejaVuSans-32" x="318.066406"/>
       <use xlink:href="#DejaVuSans-30" x="381.689453"/>
       <use xlink:href="#DejaVuSans-32" x="445.3125"/>
       <use xlink:href="#DejaVuSans-32" x="508.935547"/>
      </g>
     </g>
    </g>
    <g id="xtick_6">
     <g id="line2d_6">
      <g>
       <use xlink:href="#m3b44a07397" x="395.738773" y="320.4" style="stroke: #000000; stroke-width: 0.8"/>
      </g>
     </g>
     <g id="text_6">
      <!-- 01.05.2022 -->
      <g transform="translate(367.110648 334.998438) scale(0.1 -0.1)">
       <use xlink:href="#DejaVuSans-30"/>
       <use xlink:href="#DejaVuSans-31" x="63.623047"/>
       <use xlink:href="#DejaVuSans-2e" x="127.246094"/>
       <use xlink:href="#DejaVuSans-30" x="159.033203"/>
       <use xlink:href="#DejaVuSans-35" x="222.65625"/>
       <use xlink:href="#DejaVuSans-2e" x="286.279297"/>
       <use xlink:href="#DejaVuSans-32" x="318.066406"/>
       <use xlink:href="#DejaVuSans-30" x="381.689453"/>
       <use xlink:href="#DejaVuSans-32" x="445.3125"/>
       <use xlink:href="#DejaVuSans-32" x="508.935547"/>
      </g>
     </g>
    </g>
    <g id="xtick_7">
     <g id="line2d_7">
      <g>
       <use xlink:href="#m3b44a07397" x="449.21632" y="320.4" style="stroke: #000000; stroke-width: 0.8"/>
      </g>
     </g>
     <g id="text_7">
      <!-- 15.05.2022 -->
      <g transform="translate(420.588195 334.998438) scale(0.1 -0.1)">
       <use xlink:href="#DejaVuSans-31"/>
       <use xlink:href="#DejaVuSans-35" x="63.623047"/>
       <use xlink:href="#DejaVuSans-2e" x="127.246094"/>
       <use xlink:href="#DejaVuSans-30" x="159.033203"/>
       <use xlink:href="#DejaVuSans-35" x="222.65625"/>
       <use xlink:href="#DejaVuSans-2e" x="286.279297"/>
       <use xlink:href="#DejaVuSans-32" x="318.066406"/>
       <use xlink:href="#DejaVuSans-30" x="381.689453"/>
       <use xlink:href="#DejaVuSans-32" x="445.3125"/>
       <use xlink:href="#DejaVuSans-32" x="508.935547"/>
      </g>
     </g>
    </g>
    <g id="xtick_8">
     <g id="line2d_8">
      <g>
       <use xlink:href="#m3b44a07397" x="514.153341" y="320.4" style="stroke: #000000; stroke-width: 0.8"/>
      </g>
     </g>
     <g id="text_8">
      <!-- 01.06.2022 -->
      <g transform="translate(485.525216 334.998438) scale(0.1 -0.1)">
       <defs>
        <path id="DejaVuSans-36" d="M 2113 2584 
Q 1688 2584 1439 2293 
Q 1191 2003 1191 1497 
Q 1191 994 1439 701 
Q 1688 409 2113 409 
Q 2538 409 2786 701 
Q 3034 994 3034 1497 
Q 3034 2003 2786 2293 
Q 2538 2584 2113 2584 
z
M 3366 4563 
L 3366 3988 
Q 3128 4100 2886 4159 
Q 2644 4219 2406 4219 
Q 1781 4219 1451 3797 
Q 1122 3375 1075 2522 
Q 1259 2794 1537 2939 
Q 1816 3084 2150 3084 
Q 2853 3084 3261 2657 
Q 3669 2231 3669 1497 
Q 3669 778 3244 343 
Q 2819 -91 2113 -91 
Q 1303 -91 875 529 
Q 447 1150 447 2328 
Q 447 3434 972 4092 
Q 1497 4750 2381 4750 
Q 2619 4750 2861 4703 
Q 3103 4656 3366 4563 
z
" transform="scale(0.015625)"/>
       </defs>
       <use xlink:href="#DejaVuSans-30"/>
       <use xlink:href="#DejaVuSans-31" x="63.623047"/>
       <use xlink:href="#DejaVuSans-2e" x="127.246094"/>
       <use xlink:href="#DejaVuSans-30" x="159.033203"/>
       <use xlink:href="#DejaVuSans-36" x="222.65625"/>
       <use xlink:href="#DejaVuSans-2e" x="286.279297"/>
       <use xlink:href="#DejaVuSans-32" x="318.066406"/>
       <use xlink:href="#DejaVuSans-30" x="381.689453"/>
       <use xlink:href="#DejaVuSans-32" x="445.3125"/>
       <use xlink:href="#DejaVuSans-32" x="508.935547"/>
      </g>
     </g>
    </g>
    <g id="xtick_9">
     <g id="line2d_9">
      <g>
       <use xlink:href="#m3b44a07397" x="567.630887" y="320.4" style="stroke: #000000; stroke-width: 0.8"/>
      </g>
     </g>
     <g id="text_9">
      <!-- 15.06.2022 -->
      <g transform="translate(539.002762 334.998438) scale(0.1 -0.1)">
       <use xlink:href="#DejaVuSans-31"/>
       <use xlink:href="#DejaVuSans-35" x="63.623047"/>
       <use xlink:href="#DejaVuSans-2e" x="127.246094"/>
       <use xlink:href="#DejaVuSans-30" x="159.033203"/>
       <use xlink:href="#DejaVuSans-36" x="222.65625"/>
       <use xlink:href="#DejaVuSans-2e" x="286.279297"/>
       <use xlink:href="#DejaVuSans-32" x="318.066406"/>
       <use xlink:href="#DejaVuSans-30" x="381.689453"/>
       <use xlink:href="#DejaVuSans-32" x="445.3125"/>
       <use xlink:href="#DejaVuSans-32" x="508.935547"/>
      </g>
     </g>
    </g>
    <g id="xtick_10">
     <g id="line2d_10">
      <g>
       <use xlink:href="#m3b44a07397" x="628.748083" y="320.4" style="stroke: #000000; stroke-width: 0.8"/>
      </g>
     </g>
     <g id="text_10">
      <!-- 01.07.2022 -->
      <g transform="translate(600.119958 334.998438) scale(0.1 -0.1)">
       <defs>
        <path id="DejaVuSans-37" d="M 525 4666 
L 3525 4666 
L 3525 4397 
L 1831 0 
L 1172 0 
L 2766 4134 
L 525 4134 
L 525 4666 
z
" transform="scale(0.015625)"/>
       </defs>
       <use xlink:href="#DejaVuSans-30"/>
       <use xlink:href="#DejaVuSans-31" x="63.623047"/>
       <use xlink:href="#DejaVuSans-2e" x="127.246094"/>
       <use xlink:href="#DejaVuSans-30" x="159.033203"/>
       <use xlink:href="#DejaVuSans-37" x="222.65625"/>
       <use xlink:href="#DejaVuSans-2e" x="286.279297"/>
       <use xlink:href="#DejaVuSans-32" x="318.066406"/>
       <use xlink:href="#DejaVuSans-30" x="381.689453"/>
       <use xlink:href="#DejaVuSans-32" x="445.3125"/>
       <use xlink:href="#DejaVuSans-32" x="508.935547"/>
      </g>
     </g>
    </g>
    <g id="text_11">
     <!-- Date -->
     <g transform="translate(357.049219 348.676562) scale(0.1 -0.1)">
      <defs>
       <path id="DejaVuSans-44" d="M 1259 4147 
L 1259 519 
L 2022 519 
Q 2988 519 3436 956 
Q 3884 1394 3884 2338 
Q 3884 3275 3436 3711 
Q 2988 4147 2022 4147 
L 1259 4147 
z
M 628 4666 
L 1925 4666 
Q 3281 4666 3915 4102 
Q 4550 3538 4550 2338 
Q 4550 1131 3912 565 
Q 3275 0 1925 0 
L 628 0 
L 628 4666 
z
" transform="scale(0.015625)"/>
       <path id="DejaVuSans-61" d="M 2194 1759 
Q 1497 1759 1228 1600 
Q 959 1441 959 1056 
Q 959 750 1161 570 
Q 1363 391 1709 391 
Q 2188 391 2477 730 
Q 2766 1069 2766 1631 
L 2766 1759 
L 2194 1759 
z
M 3341 1997 
L 3341 0 
L 2766 0 
L 2766 531 
Q 2569 213 2275 61 
Q 1981 -91 1556 -91 
Q 1019 -91 701 211 
Q 384 513 384 1019 
Q 384 1609 779 1909 
Q 1175 2209 1959 2209 
L 2766 2209 
L 2766 2266 
Q 2766 2663 2505 2880 
Q 2244 3097 1772 3097 
Q 1472 3097 1187 3025 
Q 903 2953 641 2809 
L 641 3341 
Q 956 3463 1253 3523 
Q 1550 3584 1831 3584 
Q 2591 3584 2966 3190 
Q 3341 2797 3341 1997 
z
" transform="scale(0.015625)"/>
       <path id="DejaVuSans-74" d="M 1172 4494 
L 1172 3500 
L 2356 3500 
L 2356 3053 
L 1172 3053 
L 1172 1153 
Q 1172 725 1289 603 
Q 1406 481 1766 481 
L 2356 481 
L 2356 0 
L 1766 0 
Q 1100 0 847 248 
Q 594 497 594 1153 
L 594 3053 
L 172 3053 
L 172 3500 
L 594 3500 
L 594 4494 
L 1172 4494 
z
" transform="scale(0.015625)"/>
       <path id="DejaVuSans-65" d="M 3597 1894 
L 3597 1613 
L 953 1613 
Q 991 1019 1311 708 
Q 1631 397 2203 397 
Q 2534 397 2845 478 
Q 3156 559 3463 722 
L 3463 178 
Q 3153 47 2828 -22 
Q 2503 -91 2169 -91 
Q 1331 -91 842 396 
Q 353 884 353 1716 
Q 353 2575 817 3079 
Q 1281 3584 2069 3584 
Q 2775 3584 3186 3129 
Q 3597 2675 3597 1894 
z
M 3022 2063 
Q 3016 2534 2758 2815 
Q 2500 3097 2075 3097 
Q 1594 3097 1305 2825 
Q 1016 2553 972 2059 
L 3022 2063 
z
" transform="scale(0.015625)"/>
      </defs>
      <use xlink:href="#DejaVuSans-44"/>
      <use xlink:href="#DejaVuSans-61" x="77.001953"/>
      <use xlink:href="#DejaVuSans-74" x="138.28125"/>
      <use xlink:href="#DejaVuSans-65" x="177.490234"/>
     </g>
    </g>
   </g>
   <g id="matplotlib.axis_2">
    <g id="ytick_1">
     <g id="line2d_11">
      <defs>
       <path id="m141e821f1d" d="M 0 0 
L -3.5 0 
" style="stroke: #000000; stroke-width: 0.8"/>
      </defs>
      <g>
       <use xlink:href="#m141e821f1d" x="90" y="320.4" style="stroke: #000000; stroke-width: 0.8"/>
      </g>
     </g>
     <g id="text_12">
      <!-- 0 -->
      <g transform="translate(76.6375 324.199219) scale(0.1 -0.1)">
       <use xlink:href="#DejaVuSans-30"/>
      </g>
     </g>
    </g>
    <g id="ytick_2">
     <g id="line2d_12">
      <g>
       <use xlink:href="#m141e821f1d" x="90" y="259.570507" style="stroke: #000000; stroke-width: 0.8"/>
      </g>
     </g>
     <g id="text_13">
      <!-- 50 -->
      <g transform="translate(70.275 263.369726) scale(0.1 -0.1)">
       <use xlink:href="#DejaVuSans-35"/>
       <use xlink:href="#DejaVuSans-30" x="63.623047"/>
      </g>
     </g>
    </g>
    <g id="ytick_3">
     <g id="line2d_13">
      <g>
       <use xlink:href="#m141e821f1d" x="90" y="198.741014" style="stroke: #000000; stroke-width: 0.8"/>
      </g>
     </g>
     <g id="text_14">
      <!-- 100 -->
      <g transform="translate(63.9125 202.540233) scale(0.1 -0.1)">
       <use xlink:href="#DejaVuSans-31"/>
       <use xlink:href="#DejaVuSans-30" x="63.623047"/>
       <use xlink:href="#DejaVuSans-30" x="127.246094"/>
      </g>
     </g>
    </g>
    <g id="ytick_4">
     <g id="line2d_14">
      <g>
       <use xlink:href="#m141e821f1d" x="90" y="137.911521" style="stroke: #000000; stroke-width: 0.8"/>
      </g>
     </g>
     <g id="text_15">
      <!-- 150 -->
      <g transform="translate(63.9125 141.710739) scale(0.1 -0.1)">
       <use xlink:href="#DejaVuSans-31"/>
       <use xlink:href="#DejaVuSans-35" x="63.623047"/>
       <use xlink:href="#DejaVuSans-30" x="127.246094"/>
      </g>
     </g>
    </g>
    <g id="ytick_5">
     <g id="line2d_15">
      <g>
       <use xlink:href="#m141e821f1d" x="90" y="77.082028" style="stroke: #000000; stroke-width: 0.8"/>
      </g>
     </g>
     <g id="text_16">
      <!-- 200 -->
      <g transform="translate(63.9125 80.881246) scale(0.1 -0.1)">
       <use xlink:href="#DejaVuSans-32"/>
       <use xlink:href="#DejaVuSans-30" x="63.623047"/>
       <use xlink:href="#DejaVuSans-30" x="127.246094"/>
      </g>
     </g>
    </g>
    <g id="text_17">
     <!-- Number of Tweets -->
     <g transform="translate(57.832812 226.919531) rotate(-90) scale(0.1 -0.1)">
      <defs>
       <path id="DejaVuSans-4e" d="M 628 4666 
L 1478 4666 
L 3547 763 
L 3547 4666 
L 4159 4666 
L 4159 0 
L 3309 0 
L 1241 3903 
L 1241 0 
L 628 0 
L 628 4666 
z
" transform="scale(0.015625)"/>
       <path id="DejaVuSans-75" d="M 544 1381 
L 544 3500 
L 1119 3500 
L 1119 1403 
Q 1119 906 1312 657 
Q 1506 409 1894 409 
Q 2359 409 2629 706 
Q 2900 1003 2900 1516 
L 2900 3500 
L 3475 3500 
L 3475 0 
L 2900 0 
L 2900 538 
Q 2691 219 2414 64 
Q 2138 -91 1772 -91 
Q 1169 -91 856 284 
Q 544 659 544 1381 
z
M 1991 3584 
L 1991 3584 
z
" transform="scale(0.015625)"/>
       <path id="DejaVuSans-6d" d="M 3328 2828 
Q 3544 3216 3844 3400 
Q 4144 3584 4550 3584 
Q 5097 3584 5394 3201 
Q 5691 2819 5691 2113 
L 5691 0 
L 5113 0 
L 5113 2094 
Q 5113 2597 4934 2840 
Q 4756 3084 4391 3084 
Q 3944 3084 3684 2787 
Q 3425 2491 3425 1978 
L 3425 0 
L 2847 0 
L 2847 2094 
Q 2847 2600 2669 2842 
Q 2491 3084 2119 3084 
Q 1678 3084 1418 2786 
Q 1159 2488 1159 1978 
L 1159 0 
L 581 0 
L 581 3500 
L 1159 3500 
L 1159 2956 
Q 1356 3278 1631 3431 
Q 1906 3584 2284 3584 
Q 2666 3584 2933 3390 
Q 3200 3197 3328 2828 
z
" transform="scale(0.015625)"/>
       <path id="DejaVuSans-62" d="M 3116 1747 
Q 3116 2381 2855 2742 
Q 2594 3103 2138 3103 
Q 1681 3103 1420 2742 
Q 1159 2381 1159 1747 
Q 1159 1113 1420 752 
Q 1681 391 2138 391 
Q 2594 391 2855 752 
Q 3116 1113 3116 1747 
z
M 1159 2969 
Q 1341 3281 1617 3432 
Q 1894 3584 2278 3584 
Q 2916 3584 3314 3078 
Q 3713 2572 3713 1747 
Q 3713 922 3314 415 
Q 2916 -91 2278 -91 
Q 1894 -91 1617 61 
Q 1341 213 1159 525 
L 1159 0 
L 581 0 
L 581 4863 
L 1159 4863 
L 1159 2969 
z
" transform="scale(0.015625)"/>
       <path id="DejaVuSans-72" d="M 2631 2963 
Q 2534 3019 2420 3045 
Q 2306 3072 2169 3072 
Q 1681 3072 1420 2755 
Q 1159 2438 1159 1844 
L 1159 0 
L 581 0 
L 581 3500 
L 1159 3500 
L 1159 2956 
Q 1341 3275 1631 3429 
Q 1922 3584 2338 3584 
Q 2397 3584 2469 3576 
Q 2541 3569 2628 3553 
L 2631 2963 
z
" transform="scale(0.015625)"/>
       <path id="DejaVuSans-20" transform="scale(0.015625)"/>
       <path id="DejaVuSans-6f" d="M 1959 3097 
Q 1497 3097 1228 2736 
Q 959 2375 959 1747 
Q 959 1119 1226 758 
Q 1494 397 1959 397 
Q 2419 397 2687 759 
Q 2956 1122 2956 1747 
Q 2956 2369 2687 2733 
Q 2419 3097 1959 3097 
z
M 1959 3584 
Q 2709 3584 3137 3096 
Q 3566 2609 3566 1747 
Q 3566 888 3137 398 
Q 2709 -91 1959 -91 
Q 1206 -91 779 398 
Q 353 888 353 1747 
Q 353 2609 779 3096 
Q 1206 3584 1959 3584 
z
" transform="scale(0.015625)"/>
       <path id="DejaVuSans-66" d="M 2375 4863 
L 2375 4384 
L 1825 4384 
Q 1516 4384 1395 4259 
Q 1275 4134 1275 3809 
L 1275 3500 
L 2222 3500 
L 2222 3053 
L 1275 3053 
L 1275 0 
L 697 0 
L 697 3053 
L 147 3053 
L 147 3500 
L 697 3500 
L 697 3744 
Q 697 4328 969 4595 
Q 1241 4863 1831 4863 
L 2375 4863 
z
" transform="scale(0.015625)"/>
       <path id="DejaVuSans-54" d="M -19 4666 
L 3928 4666 
L 3928 4134 
L 2272 4134 
L 2272 0 
L 1638 0 
L 1638 4134 
L -19 4134 
L -19 4666 
z
" transform="scale(0.015625)"/>
       <path id="DejaVuSans-77" d="M 269 3500 
L 844 3500 
L 1563 769 
L 2278 3500 
L 2956 3500 
L 3675 769 
L 4391 3500 
L 4966 3500 
L 4050 0 
L 3372 0 
L 2619 2869 
L 1863 0 
L 1184 0 
L 269 3500 
z
" transform="scale(0.015625)"/>
       <path id="DejaVuSans-73" d="M 2834 3397 
L 2834 2853 
Q 2591 2978 2328 3040 
Q 2066 3103 1784 3103 
Q 1356 3103 1142 2972 
Q 928 2841 928 2578 
Q 928 2378 1081 2264 
Q 1234 2150 1697 2047 
L 1894 2003 
Q 2506 1872 2764 1633 
Q 3022 1394 3022 966 
Q 3022 478 2636 193 
Q 2250 -91 1575 -91 
Q 1294 -91 989 -36 
Q 684 19 347 128 
L 347 722 
Q 666 556 975 473 
Q 1284 391 1588 391 
Q 1994 391 2212 530 
Q 2431 669 2431 922 
Q 2431 1156 2273 1281 
Q 2116 1406 1581 1522 
L 1381 1569 
Q 847 1681 609 1914 
Q 372 2147 372 2553 
Q 372 3047 722 3315 
Q 1072 3584 1716 3584 
Q 2034 3584 2315 3537 
Q 2597 3491 2834 3397 
z
" transform="scale(0.015625)"/>
      </defs>
      <use xlink:href="#DejaVuSans-4e"/>
      <use xlink:href="#DejaVuSans-75" x="74.804688"/>
      <use xlink:href="#DejaVuSans-6d" x="138.183594"/>
      <use xlink:href="#DejaVuSans-62" x="235.595703"/>
      <use xlink:href="#DejaVuSans-65" x="299.072266"/>
      <use xlink:href="#DejaVuSans-72" x="360.595703"/>
      <use xlink:href="#DejaVuSans-20" x="401.708984"/>
      <use xlink:href="#DejaVuSans-6f" x="433.496094"/>
      <use xlink:href="#DejaVuSans-66" x="494.677734"/>
      <use xlink:href="#DejaVuSans-20" x="529.882812"/>
      <use xlink:href="#DejaVuSans-54" x="561.669922"/>
      <use xlink:href="#DejaVuSans-77" x="606.253906"/>
      <use xlink:href="#DejaVuSans-65" x="688.041016"/>
      <use xlink:href="#DejaVuSans-65" x="749.564453"/>
      <use xlink:href="#DejaVuSans-74" x="811.087891"/>
      <use xlink:href="#DejaVuSans-73" x="850.296875"/>
     </g>
    </g>
   </g>
   <g id="patch_108">
    <path d="M 90 320.4 
L 90 43.2 
" style="fill: none; stroke: #000000; stroke-width: 0.8; stroke-linejoin: miter; stroke-linecap: square"/>
   </g>
   <g id="patch_109">
    <path d="M 648 320.4 
L 648 43.2 
" style="fill: none; stroke: #000000; stroke-width: 0.8; stroke-linejoin: miter; stroke-linecap: square"/>
   </g>
   <g id="patch_110">
    <path d="M 90 320.4 
L 648 320.4 
" style="fill: none; stroke: #000000; stroke-width: 0.8; stroke-linejoin: miter; stroke-linecap: square"/>
   </g>
   <g id="patch_111">
    <path d="M 90 43.2 
L 648 43.2 
" style="fill: none; stroke: #000000; stroke-width: 0.8; stroke-linejoin: miter; stroke-linecap: square"/>
   </g>
   <g id="text_18">
    <!-- Twitter Activity for Ukraine-Russia-Conflict during time of incident -->
    <g transform="translate(172.508438 37.2) scale(0.12 -0.12)">
     <defs>
      <path id="DejaVuSans-69" d="M 603 3500 
L 1178 3500 
L 1178 0 
L 603 0 
L 603 3500 
z
M 603 4863 
L 1178 4863 
L 1178 4134 
L 603 4134 
L 603 4863 
z
" transform="scale(0.015625)"/>
      <path id="DejaVuSans-41" d="M 2188 4044 
L 1331 1722 
L 3047 1722 
L 2188 4044 
z
M 1831 4666 
L 2547 4666 
L 4325 0 
L 3669 0 
L 3244 1197 
L 1141 1197 
L 716 0 
L 50 0 
L 1831 4666 
z
" transform="scale(0.015625)"/>
      <path id="DejaVuSans-63" d="M 3122 3366 
L 3122 2828 
Q 2878 2963 2633 3030 
Q 2388 3097 2138 3097 
Q 1578 3097 1268 2742 
Q 959 2388 959 1747 
Q 959 1106 1268 751 
Q 1578 397 2138 397 
Q 2388 397 2633 464 
Q 2878 531 3122 666 
L 3122 134 
Q 2881 22 2623 -34 
Q 2366 -91 2075 -91 
Q 1284 -91 818 406 
Q 353 903 353 1747 
Q 353 2603 823 3093 
Q 1294 3584 2113 3584 
Q 2378 3584 2631 3529 
Q 2884 3475 3122 3366 
z
" transform="scale(0.015625)"/>
      <path id="DejaVuSans-76" d="M 191 3500 
L 800 3500 
L 1894 563 
L 2988 3500 
L 3597 3500 
L 2284 0 
L 1503 0 
L 191 3500 
z
" transform="scale(0.015625)"/>
      <path id="DejaVuSans-79" d="M 2059 -325 
Q 1816 -950 1584 -1140 
Q 1353 -1331 966 -1331 
L 506 -1331 
L 506 -850 
L 844 -850 
Q 1081 -850 1212 -737 
Q 1344 -625 1503 -206 
L 1606 56 
L 191 3500 
L 800 3500 
L 1894 763 
L 2988 3500 
L 3597 3500 
L 2059 -325 
z
" transform="scale(0.015625)"/>
      <path id="DejaVuSans-55" d="M 556 4666 
L 1191 4666 
L 1191 1831 
Q 1191 1081 1462 751 
Q 1734 422 2344 422 
Q 2950 422 3222 751 
Q 3494 1081 3494 1831 
L 3494 4666 
L 4128 4666 
L 4128 1753 
Q 4128 841 3676 375 
Q 3225 -91 2344 -91 
Q 1459 -91 1007 375 
Q 556 841 556 1753 
L 556 4666 
z
" transform="scale(0.015625)"/>
      <path id="DejaVuSans-6b" d="M 581 4863 
L 1159 4863 
L 1159 1991 
L 2875 3500 
L 3609 3500 
L 1753 1863 
L 3688 0 
L 2938 0 
L 1159 1709 
L 1159 0 
L 581 0 
L 581 4863 
z
" transform="scale(0.015625)"/>
      <path id="DejaVuSans-6e" d="M 3513 2113 
L 3513 0 
L 2938 0 
L 2938 2094 
Q 2938 2591 2744 2837 
Q 2550 3084 2163 3084 
Q 1697 3084 1428 2787 
Q 1159 2491 1159 1978 
L 1159 0 
L 581 0 
L 581 3500 
L 1159 3500 
L 1159 2956 
Q 1366 3272 1645 3428 
Q 1925 3584 2291 3584 
Q 2894 3584 3203 3211 
Q 3513 2838 3513 2113 
z
" transform="scale(0.015625)"/>
      <path id="DejaVuSans-2d" d="M 313 2009 
L 1997 2009 
L 1997 1497 
L 313 1497 
L 313 2009 
z
" transform="scale(0.015625)"/>
      <path id="DejaVuSans-52" d="M 2841 2188 
Q 3044 2119 3236 1894 
Q 3428 1669 3622 1275 
L 4263 0 
L 3584 0 
L 2988 1197 
Q 2756 1666 2539 1819 
Q 2322 1972 1947 1972 
L 1259 1972 
L 1259 0 
L 628 0 
L 628 4666 
L 2053 4666 
Q 2853 4666 3247 4331 
Q 3641 3997 3641 3322 
Q 3641 2881 3436 2590 
Q 3231 2300 2841 2188 
z
M 1259 4147 
L 1259 2491 
L 2053 2491 
Q 2509 2491 2742 2702 
Q 2975 2913 2975 3322 
Q 2975 3731 2742 3939 
Q 2509 4147 2053 4147 
L 1259 4147 
z
" transform="scale(0.015625)"/>
      <path id="DejaVuSans-43" d="M 4122 4306 
L 4122 3641 
Q 3803 3938 3442 4084 
Q 3081 4231 2675 4231 
Q 1875 4231 1450 3742 
Q 1025 3253 1025 2328 
Q 1025 1406 1450 917 
Q 1875 428 2675 428 
Q 3081 428 3442 575 
Q 3803 722 4122 1019 
L 4122 359 
Q 3791 134 3420 21 
Q 3050 -91 2638 -91 
Q 1578 -91 968 557 
Q 359 1206 359 2328 
Q 359 3453 968 4101 
Q 1578 4750 2638 4750 
Q 3056 4750 3426 4639 
Q 3797 4528 4122 4306 
z
" transform="scale(0.015625)"/>
      <path id="DejaVuSans-6c" d="M 603 4863 
L 1178 4863 
L 1178 0 
L 603 0 
L 603 4863 
z
" transform="scale(0.015625)"/>
      <path id="DejaVuSans-64" d="M 2906 2969 
L 2906 4863 
L 3481 4863 
L 3481 0 
L 2906 0 
L 2906 525 
Q 2725 213 2448 61 
Q 2172 -91 1784 -91 
Q 1150 -91 751 415 
Q 353 922 353 1747 
Q 353 2572 751 3078 
Q 1150 3584 1784 3584 
Q 2172 3584 2448 3432 
Q 2725 3281 2906 2969 
z
M 947 1747 
Q 947 1113 1208 752 
Q 1469 391 1925 391 
Q 2381 391 2643 752 
Q 2906 1113 2906 1747 
Q 2906 2381 2643 2742 
Q 2381 3103 1925 3103 
Q 1469 3103 1208 2742 
Q 947 2381 947 1747 
z
" transform="scale(0.015625)"/>
      <path id="DejaVuSans-67" d="M 2906 1791 
Q 2906 2416 2648 2759 
Q 2391 3103 1925 3103 
Q 1463 3103 1205 2759 
Q 947 2416 947 1791 
Q 947 1169 1205 825 
Q 1463 481 1925 481 
Q 2391 481 2648 825 
Q 2906 1169 2906 1791 
z
M 3481 434 
Q 3481 -459 3084 -895 
Q 2688 -1331 1869 -1331 
Q 1566 -1331 1297 -1286 
Q 1028 -1241 775 -1147 
L 775 -588 
Q 1028 -725 1275 -790 
Q 1522 -856 1778 -856 
Q 2344 -856 2625 -561 
Q 2906 -266 2906 331 
L 2906 616 
Q 2728 306 2450 153 
Q 2172 0 1784 0 
Q 1141 0 747 490 
Q 353 981 353 1791 
Q 353 2603 747 3093 
Q 1141 3584 1784 3584 
Q 2172 3584 2450 3431 
Q 2728 3278 2906 2969 
L 2906 3500 
L 3481 3500 
L 3481 434 
z
" transform="scale(0.015625)"/>
     </defs>
     <use xlink:href="#DejaVuSans-54"/>
     <use xlink:href="#DejaVuSans-77" x="44.583984"/>
     <use xlink:href="#DejaVuSans-69" x="126.371094"/>
     <use xlink:href="#DejaVuSans-74" x="154.154297"/>
     <use xlink:href="#DejaVuSans-74" x="193.363281"/>
     <use xlink:href="#DejaVuSans-65" x="232.572266"/>
     <use xlink:href="#DejaVuSans-72" x="294.095703"/>
     <use xlink:href="#DejaVuSans-20" x="335.208984"/>
     <use xlink:href="#DejaVuSans-41" x="366.996094"/>
     <use xlink:href="#DejaVuSans-63" x="433.654297"/>
     <use xlink:href="#DejaVuSans-74" x="488.634766"/>
     <use xlink:href="#DejaVuSans-69" x="527.84375"/>
     <use xlink:href="#DejaVuSans-76" x="555.626953"/>
     <use xlink:href="#DejaVuSans-69" x="614.806641"/>
     <use xlink:href="#DejaVuSans-74" x="642.589844"/>
     <use xlink:href="#DejaVuSans-79" x="681.798828"/>
     <use xlink:href="#DejaVuSans-20" x="740.978516"/>
     <use xlink:href="#DejaVuSans-66" x="772.765625"/>
     <use xlink:href="#DejaVuSans-6f" x="807.970703"/>
     <use xlink:href="#DejaVuSans-72" x="869.152344"/>
     <use xlink:href="#DejaVuSans-20" x="910.265625"/>
     <use xlink:href="#DejaVuSans-55" x="942.052734"/>
     <use xlink:href="#DejaVuSans-6b" x="1015.246094"/>
     <use xlink:href="#DejaVuSans-72" x="1073.15625"/>
     <use xlink:href="#DejaVuSans-61" x="1114.269531"/>
     <use xlink:href="#DejaVuSans-69" x="1175.548828"/>
     <use xlink:href="#DejaVuSans-6e" x="1203.332031"/>
     <use xlink:href="#DejaVuSans-65" x="1266.710938"/>
     <use xlink:href="#DejaVuSans-2d" x="1328.234375"/>
     <use xlink:href="#DejaVuSans-52" x="1364.318359"/>
     <use xlink:href="#DejaVuSans-75" x="1429.300781"/>
     <use xlink:href="#DejaVuSans-73" x="1492.679688"/>
     <use xlink:href="#DejaVuSans-73" x="1544.779297"/>
     <use xlink:href="#DejaVuSans-69" x="1596.878906"/>
     <use xlink:href="#DejaVuSans-61" x="1624.662109"/>
     <use xlink:href="#DejaVuSans-2d" x="1685.941406"/>
     <use xlink:href="#DejaVuSans-43" x="1722.025391"/>
     <use xlink:href="#DejaVuSans-6f" x="1791.849609"/>
     <use xlink:href="#DejaVuSans-6e" x="1853.03125"/>
     <use xlink:href="#DejaVuSans-66" x="1916.410156"/>
     <use xlink:href="#DejaVuSans-6c" x="1951.615234"/>
     <use xlink:href="#DejaVuSans-69" x="1979.398438"/>
     <use xlink:href="#DejaVuSans-63" x="2007.181641"/>
     <use xlink:href="#DejaVuSans-74" x="2062.162109"/>
     <use xlink:href="#DejaVuSans-20" x="2101.371094"/>
     <use xlink:href="#DejaVuSans-64" x="2133.158203"/>
     <use xlink:href="#DejaVuSans-75" x="2196.634766"/>
     <use xlink:href="#DejaVuSans-72" x="2260.013672"/>
     <use xlink:href="#DejaVuSans-69" x="2301.126953"/>
     <use xlink:href="#DejaVuSans-6e" x="2328.910156"/>
     <use xlink:href="#DejaVuSans-67" x="2392.289062"/>
     <use xlink:href="#DejaVuSans-20" x="2455.765625"/>
     <use xlink:href="#DejaVuSans-74" x="2487.552734"/>
     <use xlink:href="#DejaVuSans-69" x="2526.761719"/>
     <use xlink:href="#DejaVuSans-6d" x="2554.544922"/>
     <use xlink:href="#DejaVuSans-65" x="2651.957031"/>
     <use xlink:href="#DejaVuSans-20" x="2713.480469"/>
     <use xlink:href="#DejaVuSans-6f" x="2745.267578"/>
     <use xlink:href="#DejaVuSans-66" x="2806.449219"/>
     <use xlink:href="#DejaVuSans-20" x="2841.654297"/>
     <use xlink:href="#DejaVuSans-69" x="2873.441406"/>
     <use xlink:href="#DejaVuSans-6e" x="2901.224609"/>
     <use xlink:href="#DejaVuSans-63" x="2964.603516"/>
     <use xlink:href="#DejaVuSans-69" x="3019.583984"/>
     <use xlink:href="#DejaVuSans-64" x="3047.367188"/>
     <use xlink:href="#DejaVuSans-65" x="3110.84375"/>
     <use xlink:href="#DejaVuSans-6e" x="3172.367188"/>
     <use xlink:href="#DejaVuSans-74" x="3235.746094"/>
    </g>
   </g>
  </g>
 </g>
 <defs>
  <clipPath id="p8dbcf567cb">
   <rect x="90" y="43.2" width="558" height="277.2"/>
  </clipPath>
 </defs>
</svg>
